<?xml version="1.0" encoding="UTF-8" standalone="no"?>
<svg
   xmlns:dc="http://purl.org/dc/elements/1.1/"
   xmlns:cc="http://creativecommons.org/ns#"
   xmlns:rdf="http://www.w3.org/1999/02/22-rdf-syntax-ns#"
   xmlns:svg="http://www.w3.org/2000/svg"
   xmlns="http://www.w3.org/2000/svg"
   xmlns:sodipodi="http://sodipodi.sourceforge.net/DTD/sodipodi-0.dtd"
   xmlns:inkscape="http://www.inkscape.org/namespaces/inkscape"
   style="fill-opacity:1; color-rendering:auto; color-interpolation:auto; stroke:black; text-rendering:auto; stroke-linecap:square; stroke-miterlimit:10; stroke-opacity:1; shape-rendering:auto; fill:black; stroke-dasharray:none; font-weight:normal; stroke-width:1; font-family:'Dialog'; font-style:normal; stroke-linejoin:miter; font-size:12; stroke-dashoffset:0; image-rendering:auto;"
   width="336"
   height="200"
   id="svg2"
   version="1.1"
   inkscape:version="0.48.2 r9819"
   sodipodi:docname="plot-p50-sns-20131009-1911.svg">
  <metadata
     id="metadata463">
    <rdf:RDF>
      <cc:Work
         rdf:about="">
        <dc:format>image/svg+xml</dc:format>
        <dc:type
           rdf:resource="http://purl.org/dc/dcmitype/StillImage" />
        <dc:title></dc:title>
      </cc:Work>
    </rdf:RDF>
  </metadata>
  <sodipodi:namedview
     pagecolor="#ffffff"
     bordercolor="#666666"
     borderopacity="1"
     objecttolerance="10"
     gridtolerance="10"
     guidetolerance="10"
     inkscape:pageopacity="0"
     inkscape:pageshadow="2"
     inkscape:window-width="1042"
     inkscape:window-height="602"
     id="namedview461"
     showgrid="false"
     inkscape:zoom="1.1190476"
     inkscape:cx="168"
     inkscape:cy="100"
     inkscape:window-x="0"
     inkscape:window-y="0"
     inkscape:window-maximized="0"
     inkscape:current-layer="svg2" />
  <!--Generated by the Batik Graphics2D SVG Generator-->
  <defs
     id="genericDefs">
    <clipPath
       id="clipPath1-9"
       clipPathUnits="userSpaceOnUse">
      <path
         inkscape:connector-curvature="0"
         id="path9-91"
         d="M 0,0 198,0 198,55 0,55 0,0 z" />
    </clipPath>
    <clipPath
       id="clipPath5837"
       clipPathUnits="userSpaceOnUse">
      <path
         inkscape:connector-curvature="0"
         id="path5839"
         d="M 0,0 198,0 198,55 0,55 0,0 z" />
    </clipPath>
    <clipPath
       id="clipPath5841"
       clipPathUnits="userSpaceOnUse">
      <path
         inkscape:connector-curvature="0"
         id="path5843"
         d="M 0,0 198,0 198,55 0,55 0,0 z" />
    </clipPath>
    <clipPath
       id="clipPath5845"
       clipPathUnits="userSpaceOnUse">
      <path
         inkscape:connector-curvature="0"
         id="path5847"
         d="M 0,0 198,0 198,55 0,55 0,0 z" />
    </clipPath>
    <clipPath
       id="clipPath5849"
       clipPathUnits="userSpaceOnUse">
      <path
         inkscape:connector-curvature="0"
         id="path5851"
         d="M 0,0 198,0 198,55 0,55 0,0 z" />
    </clipPath>
    <clipPath
       id="clipPath5853"
       clipPathUnits="userSpaceOnUse">
      <path
         inkscape:connector-curvature="0"
         id="path5855"
         d="M 0,0 198,0 198,55 0,55 0,0 z" />
    </clipPath>
    <clipPath
       id="clipPath5857"
       clipPathUnits="userSpaceOnUse">
      <path
         inkscape:connector-curvature="0"
         id="path5859"
         d="M 0,0 198,0 198,55 0,55 0,0 z" />
    </clipPath>
    <clipPath
       id="clipPath5861"
       clipPathUnits="userSpaceOnUse">
      <path
         inkscape:connector-curvature="0"
         id="path5863"
         d="M 0,0 198,0 198,55 0,55 0,0 z" />
    </clipPath>
    <clipPath
       id="clipPath5865"
       clipPathUnits="userSpaceOnUse">
      <path
         inkscape:connector-curvature="0"
         id="path5867"
         d="M 0,0 198,0 198,55 0,55 0,0 z" />
    </clipPath>
    <defs
       id="defs1">
      <clipPath
         id="clipPath1"
         clipPathUnits="userSpaceOnUse">
        <path
           id="path9"
           d="M0 0 L336 0 L336 200 L0 200 L0 0 Z" />
      </clipPath>
    </defs>
  </defs>
  <rect
     x="0"
     y="0"
     width="336"
     style="fill:#ffffff;stroke:none"
     height="200"
     id="rect13"
     clip-path="url(#clipPath1)"
     transform="translate(-14,0)" />
  <path
     d="m 167.7114,197.0645 0,-7.1368 -2.5488,0 0,-1.4531 6.8262,0 0,1.4531 -2.543,0 0,7.1368 z m 5.3848,-7.0665 0,-1.5234 1.6465,0 0,1.5234 z m 0,7.0665 0,-6.2227 1.6465,0 0,6.2227 z m 3.2109,-6.2227 1.5176,0 0,0.8496 q 0.8145,-0.9902 1.9395,-0.9902 0.5976,0 1.0371,0.2461 0.4394,0.2461 0.7207,0.7441 0.4101,-0.498 0.8847,-0.7441 0.4746,-0.2461 1.0137,-0.2461 0.6856,0 1.1602,0.2783 0.4746,0.2783 0.709,0.8174 0.1699,0.3984 0.1699,1.289 l 0,3.9786 -1.6465,0 0,-3.5567 q 0,-0.9258 -0.1699,-1.1953 -0.2285,-0.3516 -0.7032,-0.3516 -0.3457,0 -0.6503,0.211 -0.3047,0.2109 -0.4395,0.6181 -0.1348,0.4073 -0.1348,1.2862 l 0,2.9883 -1.6465,0 0,-3.4102 q 0,-0.9082 -0.0878,-1.1719 -0.0879,-0.2636 -0.2725,-0.3926 -0.1846,-0.1289 -0.501,-0.1289 -0.3808,0 -0.6855,0.2051 -0.3047,0.2051 -0.4366,0.5918 -0.1318,0.3867 -0.1318,1.2832 l 0,3.0235 -1.6465,0 z m 14.3965,4.2422 1.6406,0.2754 q -0.3164,0.9023 -0.999,1.374 -0.6826,0.4717 -1.708,0.4717 -1.623,0 -2.4023,-1.0606 -0.6153,-0.8496 -0.6153,-2.1445 0,-1.5469 0.8086,-2.4229 0.8086,-0.8759 2.0449,-0.8759 1.3887,0 2.1915,0.917 0.8027,0.917 0.7675,2.8095 l -4.125,0 q 0.0176,0.7325 0.3985,1.1397 0.3808,0.4072 0.9492,0.4072 0.3867,0 0.6504,-0.2109 0.2636,-0.211 0.3984,-0.6797 z m 0.0938,-1.6641 q -0.0176,-0.7148 -0.3692,-1.0869 -0.3515,-0.3721 -0.8554,-0.3721 -0.5391,0 -0.8907,0.3926 -0.3515,0.3926 -0.3457,1.0664 z m 2.9707,6.0645 0,-11.0098 2.9179,0 0,1.2949 -1.3535,0 0,8.42 1.3535,0 0,1.2949 z m 3.4218,-4.1953 1.6524,-0.252 q 0.1055,0.4805 0.4277,0.7295 0.3223,0.249 0.9024,0.249 0.6386,0 0.9609,-0.2344 0.2168,-0.164 0.2168,-0.4394 0,-0.1875 -0.1172,-0.3106 -0.123,-0.1171 -0.5508,-0.2167 -1.9922,-0.4395 -2.5254,-0.8028 -0.7382,-0.5039 -0.7382,-1.4004 0,-0.8086 0.6386,-1.3593 0.6387,-0.5508 1.9805,-0.5508 1.2773,0 1.8984,0.416 0.6211,0.416 0.8555,1.2305 l -1.5527,0.2871 q -0.0996,-0.3633 -0.378,-0.5567 -0.2783,-0.1933 -0.7939,-0.1933 -0.6504,0 -0.9316,0.1816 -0.1875,0.1289 -0.1875,0.334 0,0.1758 0.164,0.2988 0.2227,0.1641 1.5381,0.4629 1.3154,0.2988 1.8369,0.7324 0.5156,0.4395 0.5156,1.2246 0,0.8555 -0.7148,1.4707 -0.7148,0.6153 -2.1152,0.6153 -1.2715,0 -2.0127,-0.5156 -0.7412,-0.5157 -0.9698,-1.4004 z m 9.5332,-6.8145 0,11.0098 -2.9179,0 0,-1.2949 1.3535,0 0,-8.4317 -1.3535,0 0,-1.2832 z"
     style="stroke:none"
     id="path17"
     clip-path="url(#clipPath1)"
     inkscape:connector-curvature="0"
     transform="translate(-14,0)" />
  <line
     x1="53.167999"
     x2="53.167999"
     y1="168.7021"
     style="fill:none;stroke-width:0.69999999;stroke-linecap:round;stroke-linejoin:round"
     y2="171.7021"
     id="line19"
     clip-path="url(#clipPath1)"
     transform="translate(-14,0)" />
  <path
     d="m 50.8022,179.2246 q 0,-1.2695 0.2613,-2.0434 0.2612,-0.774 0.7763,-1.1939 0.5152,-0.4199 1.2964,-0.4199 0.5762,0 1.0108,0.2319 0.4345,0.2319 0.7177,0.669 0.2832,0.437 0.4444,1.0644 0.1611,0.6275 0.1611,1.6919 0,1.2598 -0.2588,2.0337 -0.2588,0.7739 -0.7739,1.1963 -0.5151,0.4224 -1.3013,0.4224 -1.0351,0 -1.6259,-0.7422 -0.7081,-0.8936 -0.7081,-2.9102 z m 0.9034,0 q 0,1.7627 0.4126,2.3462 0.4126,0.5835 1.018,0.5835 0.6055,0 1.0181,-0.5859 0.4126,-0.586 0.4126,-2.3438 0,-1.7676 -0.4126,-2.3486 -0.4126,-0.5811 -1.0278,-0.5811 -0.6055,0 -0.9668,0.5127 -0.4541,0.6543 -0.4541,2.417 z"
     style="stroke:none"
     id="path21"
     clip-path="url(#clipPath1)"
     inkscape:connector-curvature="0"
     transform="translate(-14,0)" />
  <line
     x1="97.525902"
     x2="97.525902"
     y1="168.7021"
     style="fill:none;stroke-width:0.69999999;stroke-linecap:round;stroke-linejoin:round"
     y2="171.7021"
     id="line23"
     clip-path="url(#clipPath1)"
     transform="translate(-14,0)" />
  <path
     d="m 92.9092,182.7549 -0.8789,0 0,-5.6006 q -0.3174,0.3027 -0.8325,0.6055 -0.5152,0.3027 -0.9253,0.4541 l 0,-0.8496 q 0.7373,-0.3467 1.289,-0.8399 0.5518,-0.4932 0.7813,-0.957 l 0.5664,0 z m 2.251,-3.5303 q 0,-1.2695 0.2612,-2.0434 0.2612,-0.774 0.7764,-1.1939 0.5151,-0.4199 1.2963,-0.4199 0.5762,0 1.0108,0.2319 0.4346,0.2319 0.7178,0.669 0.2832,0.437 0.4443,1.0644 0.1611,0.6275 0.1611,1.6919 0,1.2598 -0.2588,2.0337 -0.2588,0.7739 -0.7739,1.1963 -0.5151,0.4224 -1.3013,0.4224 -1.0351,0 -1.6259,-0.7422 -0.708,-0.8936 -0.708,-2.9102 z m 0.9033,0 q 0,1.7627 0.4126,2.3462 0.4126,0.5835 1.018,0.5835 0.6055,0 1.0181,-0.5859 0.4126,-0.586 0.4126,-2.3438 0,-1.7676 -0.4126,-2.3486 -0.4126,-0.5811 -1.0278,-0.5811 -0.6055,0 -0.9668,0.5127 -0.4541,0.6543 -0.4541,2.417 z m 4.6582,0 q 0,-1.2695 0.2612,-2.0434 0.2612,-0.774 0.7764,-1.1939 0.5151,-0.4199 1.2964,-0.4199 0.5761,0 1.0107,0.2319 0.4346,0.2319 0.7178,0.669 0.2832,0.437 0.4443,1.0644 0.1611,0.6275 0.1611,1.6919 0,1.2598 -0.2587,2.0337 -0.2588,0.7739 -0.774,1.1963 -0.5151,0.4224 -1.3012,0.4224 -1.0352,0 -1.626,-0.7422 -0.708,-0.8936 -0.708,-2.9102 z m 0.9033,0 q 0,1.7627 0.4126,2.3462 0.4126,0.5835 1.0181,0.5835 0.6054,0 1.018,-0.5859 0.4126,-0.586 0.4126,-2.3438 0,-1.7676 -0.4126,-2.3486 -0.4126,-0.5811 -1.0278,-0.5811 -0.6055,0 -0.9668,0.5127 -0.4541,0.6543 -0.4541,2.417 z"
     style="stroke:none"
     id="path25"
     clip-path="url(#clipPath1)"
     inkscape:connector-curvature="0"
     transform="translate(-14,0)" />
  <line
     x1="141.8838"
     x2="141.8838"
     y1="168.7021"
     style="fill:none;stroke-width:0.69999999;stroke-linecap:round;stroke-linejoin:round"
     y2="171.7021"
     id="line27"
     clip-path="url(#clipPath1)"
     transform="translate(-14,0)" />
  <path
     d="m 138.5757,181.9102 0,0.8447 -4.7315,0 q -0.01,-0.3174 0.1026,-0.6104 0.1806,-0.4834 0.5786,-0.9521 0.3979,-0.4688 1.1499,-1.084 1.167,-0.957 1.5771,-1.5161 0.4102,-0.5591 0.4102,-1.0571 0,-0.5225 -0.3735,-0.8814 -0.3736,-0.3589 -0.9742,-0.3589 -0.6347,0 -1.0156,0.3809 -0.3808,0.3808 -0.3857,1.0547 l -0.9033,-0.0928 q 0.0927,-1.0107 0.6982,-1.5405 0.6055,-0.5298 1.626,-0.5298 1.0302,0 1.6308,0.5713 0.6006,0.5713 0.6006,1.416 0,0.4297 -0.1758,0.8447 -0.1757,0.4151 -0.5835,0.874 -0.4077,0.459 -1.3549,1.2598 -0.7911,0.6641 -1.0157,0.9009 -0.2246,0.2368 -0.3711,0.4761 z m 0.9424,-2.6856 q 0,-1.2695 0.2612,-2.0434 0.2612,-0.774 0.7764,-1.1939 0.5151,-0.4199 1.2964,-0.4199 0.5761,0 1.0107,0.2319 0.4346,0.2319 0.7178,0.669 0.2832,0.437 0.4443,1.0644 0.1611,0.6275 0.1611,1.6919 0,1.2598 -0.2588,2.0337 -0.2587,0.7739 -0.7739,1.1963 -0.5151,0.4224 -1.3012,0.4224 -1.0352,0 -1.626,-0.7422 -0.708,-0.8936 -0.708,-2.9102 z m 0.9033,0 q 0,1.7627 0.4126,2.3462 0.4126,0.5835 1.0181,0.5835 0.6054,0 1.018,-0.5859 0.4126,-0.586 0.4126,-2.3438 0,-1.7676 -0.4126,-2.3486 -0.4126,-0.5811 -1.0278,-0.5811 -0.6055,0 -0.9668,0.5127 -0.4541,0.6543 -0.4541,2.417 z m 4.6582,0 q 0,-1.2695 0.2612,-2.0434 0.2613,-0.774 0.7764,-1.1939 0.5151,-0.4199 1.2964,-0.4199 0.5761,0 1.0107,0.2319 0.4346,0.2319 0.7178,0.669 0.2832,0.437 0.4443,1.0644 0.1612,0.6275 0.1612,1.6919 0,1.2598 -0.2588,2.0337 -0.2588,0.7739 -0.774,1.1963 -0.5151,0.4224 -1.3012,0.4224 -1.0352,0 -1.626,-0.7422 -0.708,-0.8936 -0.708,-2.9102 z m 0.9033,0 q 0,1.7627 0.4126,2.3462 0.4126,0.5835 1.0181,0.5835 0.6054,0 1.018,-0.5859 0.4126,-0.586 0.4126,-2.3438 0,-1.7676 -0.4126,-2.3486 -0.4126,-0.5811 -1.0278,-0.5811 -0.6055,0 -0.9668,0.5127 -0.4541,0.6543 -0.4541,2.417 z"
     style="stroke:none"
     id="path29"
     clip-path="url(#clipPath1)"
     inkscape:connector-curvature="0"
     transform="translate(-14,0)" />
  <line
     x1="186.2417"
     x2="186.2417"
     y1="168.7021"
     style="fill:none;stroke-width:0.69999999;stroke-linecap:round;stroke-linejoin:round"
     y2="171.7021"
     id="line31"
     clip-path="url(#clipPath1)"
     transform="translate(-14,0)" />
  <path
     d="m 178.3193,180.8652 0.8789,-0.1172 q 0.1514,0.7471 0.5152,1.0767 0.3637,0.3296 0.8862,0.3296 0.6201,0 1.0474,-0.4297 0.4272,-0.4297 0.4272,-1.0644 0,-0.6055 -0.3955,-0.9986 -0.3955,-0.393 -1.0058,-0.393 -0.2491,0 -0.6202,0.0976 l 0.0977,-0.7715 q 0.0879,0.01 0.1416,0.01 0.5615,0 1.0107,-0.293 0.4493,-0.2929 0.4493,-0.9033 0,-0.4834 -0.3272,-0.8008 -0.3271,-0.3174 -0.8447,-0.3174 -0.5127,0 -0.8545,0.3223 -0.3418,0.3223 -0.4395,0.9668 l -0.8789,-0.1562 q 0.1612,-0.8838 0.7324,-1.3697 0.5713,-0.4858 1.4209,-0.4858 0.586,0 1.0791,0.2514 0.4932,0.2515 0.7544,0.6861 0.2613,0.4346 0.2613,0.9228 0,0.4639 -0.2491,0.8448 -0.249,0.3808 -0.7373,0.6054 0.6348,0.1465 0.9864,0.6079 0.3515,0.4615 0.3515,1.1548 0,0.9375 -0.6836,1.5894 -0.6836,0.6518 -1.7285,0.6518 -0.9424,0 -1.5649,-0.5615 -0.6226,-0.5615 -0.7105,-1.4551 z m 5.5567,-1.6406 q 0,-1.2695 0.2612,-2.0434 0.2612,-0.774 0.7764,-1.1939 0.5151,-0.4199 1.2964,-0.4199 0.5761,0 1.0107,0.2319 0.4346,0.2319 0.7178,0.669 0.2832,0.437 0.4443,1.0644 0.1611,0.6275 0.1611,1.6919 0,1.2598 -0.2587,2.0337 -0.2588,0.7739 -0.774,1.1963 -0.5151,0.4224 -1.3012,0.4224 -1.0352,0 -1.626,-0.7422 -0.708,-0.8936 -0.708,-2.9102 z m 0.9033,0 q 0,1.7627 0.4126,2.3462 0.4126,0.5835 1.0181,0.5835 0.6054,0 1.018,-0.5859 0.4126,-0.586 0.4126,-2.3438 0,-1.7676 -0.4126,-2.3486 -0.4126,-0.5811 -1.0278,-0.5811 -0.6055,0 -0.9668,0.5127 -0.4541,0.6543 -0.4541,2.417 z m 4.6582,0 q 0,-1.2695 0.2612,-2.0434 0.2613,-0.774 0.7764,-1.1939 0.5151,-0.4199 1.2964,-0.4199 0.5762,0 1.0107,0.2319 0.4346,0.2319 0.7178,0.669 0.2832,0.437 0.4443,1.0644 0.1612,0.6275 0.1612,1.6919 0,1.2598 -0.2588,2.0337 -0.2588,0.7739 -0.7739,1.1963 -0.5152,0.4224 -1.3013,0.4224 -1.0352,0 -1.626,-0.7422 -0.708,-0.8936 -0.708,-2.9102 z m 0.9033,0 q 0,1.7627 0.4126,2.3462 0.4126,0.5835 1.0181,0.5835 0.6055,0 1.0181,-0.5859 0.4125,-0.586 0.4125,-2.3438 0,-1.7676 -0.4125,-2.3486 -0.4126,-0.5811 -1.0279,-0.5811 -0.6055,0 -0.9668,0.5127 -0.4541,0.6543 -0.4541,2.417 z"
     style="stroke:none"
     id="path33"
     clip-path="url(#clipPath1)"
     inkscape:connector-curvature="0"
     transform="translate(-14,0)" />
  <line
     x1="230.59959"
     x2="230.59959"
     y1="168.7021"
     style="fill:none;stroke-width:0.69999999;stroke-linecap:round;stroke-linejoin:round"
     y2="171.7021"
     id="line35"
     clip-path="url(#clipPath1)"
     transform="translate(-14,0)" />
  <path
     d="m 225.4897,182.7549 0,-1.7139 -3.1054,0 0,-0.8056 3.2666,-4.6387 0.7178,0 0,4.6387 0.9667,0 0,0.8056 -0.9667,0 0,1.7139 z m 0,-2.5195 0,-3.2276 -2.2412,3.2276 z m 2.7442,-1.0108 q 0,-1.2695 0.2612,-2.0434 0.2612,-0.774 0.7764,-1.1939 0.5151,-0.4199 1.2964,-0.4199 0.5761,0 1.0107,0.2319 0.4346,0.2319 0.7178,0.669 0.2832,0.437 0.4443,1.0644 0.1612,0.6275 0.1612,1.6919 0,1.2598 -0.2588,2.0337 -0.2588,0.7739 -0.774,1.1963 -0.5151,0.4224 -1.3012,0.4224 -1.0352,0 -1.626,-0.7422 -0.708,-0.8936 -0.708,-2.9102 z m 0.9033,0 q 0,1.7627 0.4126,2.3462 0.4126,0.5835 1.0181,0.5835 0.6054,0 1.018,-0.5859 0.4126,-0.586 0.4126,-2.3438 0,-1.7676 -0.4126,-2.3486 -0.4126,-0.5811 -1.0278,-0.5811 -0.6055,0 -0.9668,0.5127 -0.4541,0.6543 -0.4541,2.417 z m 4.6582,0 q 0,-1.2695 0.2612,-2.0434 0.2613,-0.774 0.7764,-1.1939 0.5151,-0.4199 1.2964,-0.4199 0.5762,0 1.0107,0.2319 0.4346,0.2319 0.7178,0.669 0.2832,0.437 0.4443,1.0644 0.1612,0.6275 0.1612,1.6919 0,1.2598 -0.2588,2.0337 -0.2588,0.7739 -0.7739,1.1963 -0.5152,0.4224 -1.3013,0.4224 -1.0352,0 -1.626,-0.7422 -0.708,-0.8936 -0.708,-2.9102 z m 0.9033,0 q 0,1.7627 0.4126,2.3462 0.4126,0.5835 1.0181,0.5835 0.6055,0 1.0181,-0.5859 0.4126,-0.586 0.4126,-2.3438 0,-1.7676 -0.4126,-2.3486 -0.4126,-0.5811 -1.0279,-0.5811 -0.6054,0 -0.9668,0.5127 -0.4541,0.6543 -0.4541,2.417 z"
     style="stroke:none"
     id="path37"
     clip-path="url(#clipPath1)"
     inkscape:connector-curvature="0"
     transform="translate(-14,0)" />
  <line
     x1="274.95749"
     x2="274.95749"
     y1="168.7021"
     style="fill:none;stroke-width:0.69999999;stroke-linecap:round;stroke-linejoin:round"
     y2="171.7021"
     id="line39"
     clip-path="url(#clipPath1)"
     transform="translate(-14,0)" />
  <path
     d="m 267.0303,180.8799 0.9228,-0.0781 q 0.1026,0.6738 0.4761,1.0131 0.3735,0.3394 0.9009,0.3394 0.6347,0 1.0742,-0.4785 0.4395,-0.4785 0.4395,-1.2696 0,-0.7519 -0.4224,-1.1865 -0.4224,-0.4345 -1.106,-0.4345 -0.4248,0 -0.7666,0.1928 -0.3418,0.1929 -0.5371,0.5005 l -0.8252,-0.1074 0.6934,-3.6768 3.5596,0 0,0.8399 -2.8565,0 -0.3857,1.9238 q 0.6445,-0.4492 1.3525,-0.4492 0.9375,0 1.582,0.6494 0.6446,0.6494 0.6446,1.6699 0,0.9717 -0.5664,1.6797 -0.6885,0.8692 -1.8799,0.8692 -0.9766,0 -1.5943,-0.5469 -0.6176,-0.5469 -0.7055,-1.4502 z m 5.5615,-1.6553 q 0,-1.2695 0.2612,-2.0434 0.2613,-0.774 0.7764,-1.1939 0.5151,-0.4199 1.2964,-0.4199 0.5762,0 1.0107,0.2319 0.4346,0.2319 0.7178,0.669 0.2832,0.437 0.4443,1.0644 0.1612,0.6275 0.1612,1.6919 0,1.2598 -0.2588,2.0337 -0.2588,0.7739 -0.7739,1.1963 -0.5152,0.4224 -1.3013,0.4224 -1.0352,0 -1.626,-0.7422 -0.708,-0.8936 -0.708,-2.9102 z m 0.9033,0 q 0,1.7627 0.4126,2.3462 0.4126,0.5835 1.0181,0.5835 0.6054,0 1.018,-0.5859 0.4126,-0.586 0.4126,-2.3438 0,-1.7676 -0.4126,-2.3486 -0.4126,-0.5811 -1.0278,-0.5811 -0.6055,0 -0.9668,0.5127 -0.4541,0.6543 -0.4541,2.417 z m 4.6582,0 q 0,-1.2695 0.2613,-2.0434 0.2612,-0.774 0.7763,-1.1939 0.5152,-0.4199 1.2964,-0.4199 0.5762,0 1.0107,0.2319 0.4346,0.2319 0.7178,0.669 0.2832,0.437 0.4444,1.0644 0.1611,0.6275 0.1611,1.6919 0,1.2598 -0.2588,2.0337 -0.2588,0.7739 -0.7739,1.1963 -0.5152,0.4224 -1.3013,0.4224 -1.0352,0 -1.626,-0.7422 -0.708,-0.8936 -0.708,-2.9102 z m 0.9033,0 q 0,1.7627 0.4126,2.3462 0.4126,0.5835 1.0181,0.5835 0.6055,0 1.0181,-0.5859 0.4126,-0.586 0.4126,-2.3438 0,-1.7676 -0.4126,-2.3486 -0.4126,-0.5811 -1.0279,-0.5811 -0.6054,0 -0.9668,0.5127 -0.4541,0.6543 -0.4541,2.417 z"
     style="stroke:none"
     id="path41"
     clip-path="url(#clipPath1)"
     inkscape:connector-curvature="0"
     transform="translate(-14,0)" />
  <line
     x1="319.3154"
     x2="319.3154"
     y1="168.7021"
     style="fill:none;stroke-width:0.69999999;stroke-linecap:round;stroke-linejoin:round"
     y2="171.7021"
     id="line43"
     clip-path="url(#clipPath1)"
     transform="translate(-14,0)" />
  <path
     d="m 315.9487,177.3496 -0.874,0.0684 q -0.1172,-0.5176 -0.332,-0.752 -0.3565,-0.376 -0.8789,-0.376 -0.42,0 -0.7373,0.2344 -0.4151,0.3027 -0.6543,0.8838 -0.2393,0.5811 -0.2491,1.6553 0.3174,-0.4834 0.7764,-0.7178 0.459,-0.2344 0.9619,-0.2344 0.8789,0 1.4966,0.647 0.6177,0.647 0.6177,1.6724 0,0.6738 -0.2905,1.2524 -0.2906,0.5786 -0.7984,0.8862 -0.5078,0.3077 -1.1523,0.3077 -1.0987,0 -1.792,-0.8082 -0.6934,-0.8081 -0.6934,-2.6635 0,-2.0752 0.7666,-3.0176 0.669,-0.8203 1.8018,-0.8203 0.8447,0 1.3843,0.4736 0.5395,0.4736 0.6469,1.3086 z m -3.5888,3.0859 q 0,0.4541 0.1928,0.8692 0.1929,0.415 0.5396,0.6323 0.3467,0.2173 0.7275,0.2173 0.5567,0 0.9571,-0.4492 0.4003,-0.4492 0.4003,-1.2207 0,-0.7422 -0.3955,-1.1695 -0.3955,-0.4272 -0.9961,-0.4272 -0.5957,0 -1.0107,0.4272 -0.415,0.4273 -0.415,1.1206 z m 4.5898,-1.2109 q 0,-1.2695 0.2612,-2.0434 0.2613,-0.774 0.7764,-1.1939 0.5151,-0.4199 1.2964,-0.4199 0.5762,0 1.0107,0.2319 0.4346,0.2319 0.7178,0.669 0.2832,0.437 0.4443,1.0644 0.1612,0.6275 0.1612,1.6919 0,1.2598 -0.2588,2.0337 -0.2588,0.7739 -0.7739,1.1963 -0.5152,0.4224 -1.3013,0.4224 -1.0352,0 -1.626,-0.7422 -0.708,-0.8936 -0.708,-2.9102 z m 0.9033,0 q 0,1.7627 0.4126,2.3462 0.4126,0.5835 1.0181,0.5835 0.6055,0 1.0181,-0.5859 0.4126,-0.586 0.4126,-2.3438 0,-1.7676 -0.4126,-2.3486 -0.4126,-0.5811 -1.0279,-0.5811 -0.6054,0 -0.9668,0.5127 -0.4541,0.6543 -0.4541,2.417 z m 4.6582,0 q 0,-1.2695 0.2613,-2.0434 0.2612,-0.774 0.7763,-1.1939 0.5152,-0.4199 1.2964,-0.4199 0.5762,0 1.0108,0.2319 0.4345,0.2319 0.7177,0.669 0.2832,0.437 0.4444,1.0644 0.1611,0.6275 0.1611,1.6919 0,1.2598 -0.2588,2.0337 -0.2588,0.7739 -0.7739,1.1963 -0.5152,0.4224 -1.3013,0.4224 -1.0351,0 -1.626,-0.7422 -0.708,-0.8936 -0.708,-2.9102 z m 0.9034,0 q 0,1.7627 0.4125,2.3462 0.4126,0.5835 1.0181,0.5835 0.6055,0 1.0181,-0.5859 0.4126,-0.586 0.4126,-2.3438 0,-1.7676 -0.4126,-2.3486 -0.4126,-0.5811 -1.0279,-0.5811 -0.6054,0 -0.9667,0.5127 -0.4541,0.6543 -0.4541,2.417 z"
     style="stroke:none"
     id="path45"
     clip-path="url(#clipPath1)"
     inkscape:connector-curvature="0"
     transform="translate(-14,0)" />
  <line
     x1="53.167999"
     x2="50.167999"
     y1="168.7021"
     style="fill:none;stroke-width:0.69999999;stroke-linecap:round;stroke-linejoin:round"
     y2="168.7021"
     id="line49"
     clip-path="url(#clipPath1)"
     transform="translate(-14,0)" />
  <path
     d="m 42.0215,168.4751 q 0,-1.2695 0.2612,-2.0435 0.2612,-0.7739 0.7764,-1.1938 0.5151,-0.4199 1.2964,-0.4199 0.5761,0 1.0107,0.2319 0.4346,0.2319 0.7178,0.669 0.2832,0.437 0.4443,1.0644 0.1612,0.6274 0.1612,1.6919 0,1.2598 -0.2588,2.0337 -0.2588,0.7739 -0.774,1.1963 -0.5151,0.4223 -1.3012,0.4223 -1.0352,0 -1.626,-0.7421 -0.708,-0.8936 -0.708,-2.9102 z m 0.9033,0 q 0,1.7627 0.4126,2.3462 0.4126,0.5835 1.0181,0.5835 0.6054,0 1.018,-0.586 0.4126,-0.5859 0.4126,-2.3437 0,-1.7676 -0.4126,-2.3486 -0.4126,-0.5811 -1.0278,-0.5811 -0.6055,0 -0.9668,0.5127 -0.4541,0.6543 -0.4541,2.417 z"
     style="stroke:none"
     id="path51"
     clip-path="url(#clipPath1)"
     inkscape:connector-curvature="0"
     transform="translate(-14,0)" />
  <line
     x1="53.167999"
     x2="319.3154"
     y1="168.7021"
     style="fill:none;stroke:#808080;stroke-width:0.69999999;stroke-linecap:round;stroke-linejoin:round"
     y2="168.7021"
     id="line53"
     clip-path="url(#clipPath1)"
     transform="translate(-14,0)" />
  <line
     x1="53.167999"
     x2="50.167999"
     y1="127.964"
     style="fill:none;stroke-width:0.69999999;stroke-linecap:round;stroke-linejoin:round"
     y2="127.964"
     id="line55"
     clip-path="url(#clipPath1)"
     transform="translate(-14,0)" />
  <path
     d="m 41.0791,130.4225 0,0.8447 -4.7314,0 q -0.0098,-0.3174 0.1025,-0.6103 0.1807,-0.4834 0.5786,-0.9522 0.398,-0.4687 1.1499,-1.084 1.167,-0.957 1.5772,-1.5161 0.4101,-0.5591 0.4101,-1.0571 0,-0.5225 -0.3735,-0.8814 -0.3736,-0.3588 -0.9741,-0.3588 -0.6348,0 -1.0157,0.3808 -0.3808,0.3809 -0.3857,1.0547 L 36.5137,126.15 q 0.0927,-1.0107 0.6982,-1.5405 0.6055,-0.5298 1.626,-0.5298 1.0303,0 1.6309,0.5713 0.6005,0.5713 0.6005,1.416 0,0.4297 -0.1757,0.8447 -0.1758,0.4151 -0.5835,0.8741 -0.4078,0.459 -1.355,1.2597 -0.791,0.6641 -1.0156,0.9009 -0.2247,0.2368 -0.3711,0.4761 z m 0.9424,-1.0303 0.9228,-0.0781 q 0.1026,0.6738 0.4761,1.0132 0.3735,0.3393 0.9009,0.3393 0.6348,0 1.0742,-0.4785 0.4395,-0.4785 0.4395,-1.2695 0,-0.752 -0.4224,-1.1865 -0.4224,-0.4346 -1.106,-0.4346 -0.4248,0 -0.7666,0.1929 -0.3418,0.1928 -0.5371,0.5004 l -0.8252,-0.1074 0.6934,-3.6767 3.5596,0 0,0.8398 -2.8565,0 -0.3857,1.9238 q 0.6445,-0.4492 1.3525,-0.4492 0.9375,0 1.582,0.6494 0.6446,0.6494 0.6446,1.67 0,0.9716 -0.5664,1.6796 -0.6885,0.8692 -1.8799,0.8692 -0.9766,0 -1.5942,-0.5469 -0.6177,-0.5469 -0.7056,-1.4502 z"
     style="stroke:none"
     id="path57"
     clip-path="url(#clipPath1)"
     inkscape:connector-curvature="0"
     transform="translate(-14,0)" />
  <line
     x1="53.167999"
     x2="319.3154"
     y1="127.964"
     style="fill:none;stroke:#808080;stroke-width:0.69999999;stroke-linecap:round;stroke-linejoin:round"
     y2="127.964"
     id="line59"
     clip-path="url(#clipPath1)"
     transform="translate(-14,0)" />
  <line
     x1="53.167999"
     x2="50.167999"
     y1="87.2258"
     style="fill:none;stroke-width:0.69999999;stroke-linecap:round;stroke-linejoin:round"
     y2="87.2258"
     id="line61"
     clip-path="url(#clipPath1)"
     transform="translate(-14,0)" />
  <path
     d="m 36.46,88.6541 0.9228,-0.0782 q 0.1026,0.6739 0.4761,1.0132 0.3735,0.3394 0.9009,0.3394 0.6347,0 1.0742,-0.4785 0.4394,-0.4786 0.4394,-1.2696 0,-0.7519 -0.4223,-1.1865 -0.4224,-0.4346 -1.106,-0.4346 -0.4248,0 -0.7666,0.1929 -0.3418,0.1929 -0.5371,0.5005 l -0.8252,-0.1074 0.6934,-3.6768 3.5595,0 0,0.8398 -2.8564,0 -0.3857,1.9239 q 0.6445,-0.4492 1.3525,-0.4492 0.9375,0 1.582,0.6494 0.6446,0.6494 0.6446,1.6699 0,0.9717 -0.5665,1.6797 -0.6884,0.8691 -1.8798,0.8691 -0.9766,0 -1.5943,-0.5469 -0.6176,-0.5468 -0.7055,-1.4501 z m 5.5615,-1.6553 q 0,-1.2696 0.2612,-2.0435 0.2612,-0.7739 0.7764,-1.1938 0.5151,-0.4199 1.2964,-0.4199 0.5761,0 1.0107,0.2319 0.4346,0.2319 0.7178,0.6689 0.2832,0.437 0.4443,1.0645 0.1612,0.6274 0.1612,1.6919 0,1.2597 -0.2588,2.0337 -0.2588,0.7739 -0.774,1.1963 -0.5151,0.4223 -1.3012,0.4223 -1.0352,0 -1.626,-0.7422 -0.708,-0.8935 -0.708,-2.9101 z m 0.9033,0 q 0,1.7627 0.4126,2.3462 0.4126,0.5835 1.0181,0.5835 0.6054,0 1.018,-0.586 0.4126,-0.5859 0.4126,-2.3437 0,-1.7676 -0.4126,-2.3487 -0.4126,-0.581 -1.0278,-0.581 -0.6055,0 -0.9668,0.5127 -0.4541,0.6543 -0.4541,2.417 z"
     style="stroke:none"
     id="path63"
     clip-path="url(#clipPath1)"
     inkscape:connector-curvature="0"
     transform="translate(-14,0)" />
  <line
     x1="53.167999"
     x2="319.3154"
     y1="87.2258"
     style="fill:none;stroke:#808080;stroke-width:0.69999999;stroke-linecap:round;stroke-linejoin:round"
     y2="87.2258"
     id="line65"
     clip-path="url(#clipPath1)"
     transform="translate(-14,0)" />
  <line
     x1="53.167999"
     x2="50.167999"
     y1="46.487701"
     style="fill:none;stroke-width:0.69999999;stroke-linecap:round;stroke-linejoin:round"
     y2="46.487701"
     id="line67"
     clip-path="url(#clipPath1)"
     transform="translate(-14,0)" />
  <path
     d="m 36.5186,43.5702 0,-0.8447 4.6337,0 0,0.6836 q -0.6835,0.7275 -1.3549,1.9336 -0.6714,1.206 -1.0376,2.4804 -0.2637,0.8985 -0.3369,1.9678 l -0.9034,0 q 0.0147,-0.8447 0.3321,-2.041 0.3173,-1.1963 0.9106,-2.3072 0.5933,-1.1108 1.2622,-1.8725 z m 5.5029,4.3457 0.9228,-0.0781 q 0.1026,0.6738 0.4761,1.0132 0.3735,0.3393 0.9009,0.3393 0.6348,0 1.0742,-0.4785 0.4395,-0.4785 0.4395,-1.2695 0,-0.752 -0.4224,-1.1866 -0.4224,-0.4345 -1.106,-0.4345 -0.4248,0 -0.7666,0.1928 -0.3418,0.1929 -0.5371,0.5005 l -0.8252,-0.1074 0.6934,-3.6768 3.5596,0 0,0.8399 -2.8565,0 -0.3857,1.9238 q 0.6445,-0.4492 1.3525,-0.4492 0.9375,0 1.582,0.6494 0.6446,0.6494 0.6446,1.6699 0,0.9717 -0.5664,1.6797 -0.6885,0.8692 -1.8799,0.8692 -0.9766,0 -1.5942,-0.5469 -0.6177,-0.5469 -0.7056,-1.4502 z"
     style="stroke:none"
     id="path69"
     clip-path="url(#clipPath1)"
     inkscape:connector-curvature="0"
     transform="translate(-14,0)" />
  <line
     x1="53.167999"
     x2="319.3154"
     y1="46.487701"
     style="fill:none;stroke:#808080;stroke-width:0.69999999;stroke-linecap:round;stroke-linejoin:round"
     y2="46.487701"
     id="line71"
     clip-path="url(#clipPath1)"
     transform="translate(-14,0)" />
  <line
     x1="53.167999"
     x2="50.167999"
     y1="5.7494998"
     style="fill:none;stroke-width:0.69999999;stroke-linecap:round;stroke-linejoin:round"
     y2="5.7494998"
     id="line73"
     clip-path="url(#clipPath1)"
     transform="translate(-14,0)" />
  <path
     d="m 34.209,9.0527 -0.8789,0 0,-5.6006 q -0.3174,0.3028 -0.8325,0.6055 -0.5152,0.3028 -0.9253,0.4541 l 0,-0.8496 q 0.7373,-0.3467 1.289,-0.8398 0.5518,-0.4932 0.7813,-0.9571 l 0.5664,0 z M 36.46,5.5225 q 0,-1.2696 0.2612,-2.0435 0.2612,-0.7739 0.7764,-1.1938 0.5151,-0.42 1.2963,-0.42 0.5762,0 1.0108,0.232 0.4346,0.2319 0.7178,0.6689 0.2832,0.437 0.4443,1.0645 0.1611,0.6274 0.1611,1.6919 0,1.2597 -0.2588,2.0337 -0.2587,0.7739 -0.7739,1.1962 -0.5151,0.4224 -1.3013,0.4224 -1.0351,0 -1.6259,-0.7422 Q 36.46,7.5391 36.46,5.5225 z m 0.9033,0 q 0,1.7627 0.4126,2.3462 0.4126,0.5834 1.018,0.5834 0.6055,0 1.0181,-0.5859 0.4126,-0.5859 0.4126,-2.3437 0,-1.7676 -0.4126,-2.3487 -0.4126,-0.581 -1.0278,-0.581 -0.6055,0 -0.9668,0.5127 -0.4541,0.6543 -0.4541,2.417 z m 4.6582,0 q 0,-1.2696 0.2612,-2.0435 0.2612,-0.7739 0.7764,-1.1938 0.5151,-0.42 1.2964,-0.42 0.5761,0 1.0107,0.232 0.4346,0.2319 0.7178,0.6689 0.2832,0.437 0.4443,1.0645 0.1612,0.6274 0.1612,1.6919 0,1.2597 -0.2588,2.0337 -0.2588,0.7739 -0.774,1.1962 -0.5151,0.4224 -1.3012,0.4224 -1.0352,0 -1.626,-0.7422 -0.708,-0.8935 -0.708,-2.9101 z m 0.9033,0 q 0,1.7627 0.4126,2.3462 0.4126,0.5834 1.0181,0.5834 0.6054,0 1.018,-0.5859 0.4126,-0.5859 0.4126,-2.3437 0,-1.7676 -0.4126,-2.3487 -0.4126,-0.581 -1.0278,-0.581 -0.6055,0 -0.9668,0.5127 -0.4541,0.6543 -0.4541,2.417 z"
     style="stroke:none"
     id="path75"
     clip-path="url(#clipPath1)"
     inkscape:connector-curvature="0"
     transform="translate(-14,0)" />
  <line
     x1="53.167999"
     x2="319.3154"
     y1="5.7494998"
     style="fill:none;stroke:#808080;stroke-width:0.69999999;stroke-linecap:round;stroke-linejoin:round"
     y2="5.7494998"
     id="line77"
     clip-path="url(#clipPath1)"
     transform="translate(-14,0)" />
  <path
     d="m 53.168,168.7021 8.8716,-0.0403 8.8715,-50.7134 8.8716,-75.8482 8.8716,-20.0917 8.8716,-4.0749 8.8716,-1.291 8.8715,-0.5245 8.8716,-0.0403 8.8716,0 8.8716,0 8.8716,0 8.8716,0 8.8715,0 8.8716,0 8.8716,0 8.8716,0 8.8716,0 8.8715,0 8.8716,0 8.8716,0 8.8716,0 8.8716,0 8.8716,0 8.8715,0 8.8716,0 8.8716,0 8.8716,0 8.8716,0 8.8715,0 8.8716,0"
     style="fill:none;stroke-width:0.69999999;stroke-linecap:round;stroke-linejoin:round;stroke-miterlimit:1;stroke-dasharray:2, 4"
     id="path79"
     clip-path="url(#clipPath1)"
     inkscape:connector-curvature="0"
     transform="translate(-14,0)" />
  <path
     d="m 53.168,168.6618 8.8716,-11.0545 8.8715,-30.3796 8.8716,-32.9617 8.8716,-21.8265 8.8716,-13.5155 8.8716,-11.3773 8.8715,-8.19 8.8716,-7.2217 8.8716,-4.4783 8.8716,-4.1151 8.8716,-2.9452 8.8716,-1.8962 8.8715,-1.4524 8.8716,-1.4524 8.8716,-0.4842 8.8716,-0.4438 8.8716,-0.3227 8.8715,-0.0807 8.8716,-0.2017 8.8716,-0.0404 8.8716,-0.0403 8.8716,0 8.8716,0 8.8715,-0.0404 8.8716,0 8.8716,0 8.8716,0 8.8716,0 8.8715,0 8.8716,0"
     style="fill:none;stroke-width:0.69999999;stroke-linecap:round;stroke-linejoin:round"
     id="path81"
     clip-path="url(#clipPath1)"
     inkscape:connector-curvature="0"
     transform="translate(-14,0)" />
  <path
     d="m 53.168,168.7021 8.8716,-0.0403 8.8715,-7.7059 8.8716,-25.5382 8.8716,-94.0034 8.8716,-25.3769 8.8716,-2.0172 8.8715,-0.0403 8.8716,0 8.8716,0 8.8716,0 8.8716,0 8.8716,0 8.8715,0 8.8716,0 8.8716,0 8.8716,0 8.8716,0 8.8715,0 8.8716,0 8.8716,0 8.8716,0 8.8716,0 8.8716,0 8.8715,0 8.8716,0 8.8716,0 8.8716,0 8.8716,0 8.8715,0 8.8716,0"
     style="fill:none;stroke-width:0.69999999;stroke-linecap:round;stroke-linejoin:round;stroke-miterlimit:1;stroke-dasharray:2, 4"
     id="path83"
     clip-path="url(#clipPath1)"
     inkscape:connector-curvature="0"
     transform="translate(-14,0)" />
  <path
     d="m 53.168,168.7021 8.8716,-0.9279 8.8715,-10.8527 8.8716,-30.0166 8.8716,-33.2441 8.8716,-23.5613 8.8716,-14.7662 8.8715,-10.1266 8.8716,-7.6655 8.8716,-6.4148 8.8716,-4.6397 8.8716,-2.9855 8.8716,-2.5014 8.8715,-1.6137 8.8716,-1.7349 8.8716,-1.2103 8.8716,-1.4121 8.8716,-0.6858 8.8715,-0.6052 8.8716,-0.7262 8.8716,-0.5649 8.8716,-0.2017 8.8716,-0.0807 8.8716,-0.2824 8.8715,-0.1614 8.8716,0 8.8716,-0.1613 8.8716,0 8.8716,0 8.8715,0 8.8716,0"
     style="fill:none;stroke-width:0.69999999;stroke-linecap:round;stroke-linejoin:round"
     id="path85"
     clip-path="url(#clipPath1)"
     inkscape:connector-curvature="0"
     transform="translate(-14,0)" />
  <rect
     x="53.167999"
     y="5.7494998"
     width="266.14749"
     style="fill:none;stroke-width:0.69999999;stroke-linecap:round;stroke-linejoin:round"
     height="162.95261"
     id="rect87"
     clip-path="url(#clipPath1)"
     transform="translate(-14,0)" />
  <path
     d="m 50.668,166.2021 5,0 0,5 -5,0 0,-5 z"
     style="fill:#ffffff;stroke:none"
     id="path89"
     clip-path="url(#clipPath1)"
     inkscape:connector-curvature="0"
     transform="translate(-14,0)" />
  <path
     d="m 50.668,166.2021 5,0 0,5 -5,0 0,-5 z"
     style="fill:none;stroke-width:0.69999999;stroke-linecap:round;stroke-linejoin:round"
     id="path91"
     clip-path="url(#clipPath1)"
     inkscape:connector-curvature="0"
     transform="translate(-14,0)" />
  <path
     d="m 59.5396,166.1618 5,0 0,5 -5,0 0,-5 z"
     style="fill:#ffffff;stroke:none"
     id="path93"
     clip-path="url(#clipPath1)"
     inkscape:connector-curvature="0"
     transform="translate(-14,0)" />
  <path
     d="m 59.5396,166.1618 5,0 0,5 -5,0 0,-5 z"
     style="fill:none;stroke-width:0.69999999;stroke-linecap:round;stroke-linejoin:round"
     id="path95"
     clip-path="url(#clipPath1)"
     inkscape:connector-curvature="0"
     transform="translate(-14,0)" />
  <path
     d="m 68.4111,115.4484 5,0 0,5 -5,0 0,-5 z"
     style="fill:#ffffff;stroke:none"
     id="path97"
     clip-path="url(#clipPath1)"
     inkscape:connector-curvature="0"
     transform="translate(-14,0)" />
  <path
     d="m 68.4111,115.4484 5,0 0,5 -5,0 0,-5 z"
     style="fill:none;stroke-width:0.69999999;stroke-linecap:round;stroke-linejoin:round"
     id="path99"
     clip-path="url(#clipPath1)"
     inkscape:connector-curvature="0"
     transform="translate(-14,0)" />
  <path
     d="m 77.2827,39.6002 5,0 0,5 -5,0 0,-5 z"
     style="fill:#ffffff;stroke:none"
     id="path101"
     clip-path="url(#clipPath1)"
     inkscape:connector-curvature="0"
     transform="translate(-14,0)" />
  <path
     d="m 77.2827,39.6002 5,0 0,5 -5,0 0,-5 z"
     style="fill:none;stroke-width:0.69999999;stroke-linecap:round;stroke-linejoin:round"
     id="path103"
     clip-path="url(#clipPath1)"
     inkscape:connector-curvature="0"
     transform="translate(-14,0)" />
  <path
     d="m 86.1543,19.5085 5,0 0,5 -5,0 0,-5 z"
     style="fill:#ffffff;stroke:none"
     id="path105"
     clip-path="url(#clipPath1)"
     inkscape:connector-curvature="0"
     transform="translate(-14,0)" />
  <path
     d="m 86.1543,19.5085 5,0 0,5 -5,0 0,-5 z"
     style="fill:none;stroke-width:0.69999999;stroke-linecap:round;stroke-linejoin:round"
     id="path107"
     clip-path="url(#clipPath1)"
     inkscape:connector-curvature="0"
     transform="translate(-14,0)" />
  <path
     d="m 95.0259,15.4336 5,0 0,5 -5,0 0,-5 z"
     style="fill:#ffffff;stroke:none"
     id="path109"
     clip-path="url(#clipPath1)"
     inkscape:connector-curvature="0"
     transform="translate(-14,0)" />
  <path
     d="m 95.0259,15.4336 5,0 0,5 -5,0 0,-5 z"
     style="fill:none;stroke-width:0.69999999;stroke-linecap:round;stroke-linejoin:round"
     id="path111"
     clip-path="url(#clipPath1)"
     inkscape:connector-curvature="0"
     transform="translate(-14,0)" />
  <path
     d="m 103.8975,14.1426 5,0 0,5 -5,0 0,-5 z"
     style="fill:#ffffff;stroke:none"
     id="path113"
     clip-path="url(#clipPath1)"
     inkscape:connector-curvature="0"
     transform="translate(-14,0)" />
  <path
     d="m 103.8975,14.1426 5,0 0,5 -5,0 0,-5 z"
     style="fill:none;stroke-width:0.69999999;stroke-linecap:round;stroke-linejoin:round"
     id="path115"
     clip-path="url(#clipPath1)"
     inkscape:connector-curvature="0"
     transform="translate(-14,0)" />
  <path
     d="m 112.769,13.6181 5,0 0,5 -5,0 0,-5 z"
     style="fill:#ffffff;stroke:none"
     id="path117"
     clip-path="url(#clipPath1)"
     inkscape:connector-curvature="0"
     transform="translate(-14,0)" />
  <path
     d="m 112.769,13.6181 5,0 0,5 -5,0 0,-5 z"
     style="fill:none;stroke-width:0.69999999;stroke-linecap:round;stroke-linejoin:round"
     id="path119"
     clip-path="url(#clipPath1)"
     inkscape:connector-curvature="0"
     transform="translate(-14,0)" />
  <path
     d="m 121.6406,13.5778 5,0 0,5 -5,0 0,-5 z"
     style="fill:#ffffff;stroke:none"
     id="path121"
     clip-path="url(#clipPath1)"
     inkscape:connector-curvature="0"
     transform="translate(-14,0)" />
  <path
     d="m 121.6406,13.5778 5,0 0,5 -5,0 0,-5 z"
     style="fill:none;stroke-width:0.69999999;stroke-linecap:round;stroke-linejoin:round"
     id="path123"
     clip-path="url(#clipPath1)"
     inkscape:connector-curvature="0"
     transform="translate(-14,0)" />
  <path
     d="m 130.5122,13.5778 5,0 0,5 -5,0 0,-5 z"
     style="fill:#ffffff;stroke:none"
     id="path125"
     clip-path="url(#clipPath1)"
     inkscape:connector-curvature="0"
     transform="translate(-14,0)" />
  <path
     d="m 130.5122,13.5778 5,0 0,5 -5,0 0,-5 z"
     style="fill:none;stroke-width:0.69999999;stroke-linecap:round;stroke-linejoin:round"
     id="path127"
     clip-path="url(#clipPath1)"
     inkscape:connector-curvature="0"
     transform="translate(-14,0)" />
  <path
     d="m 139.3838,13.5778 5,0 0,5 -5,0 0,-5 z"
     style="fill:#ffffff;stroke:none"
     id="path129"
     clip-path="url(#clipPath1)"
     inkscape:connector-curvature="0"
     transform="translate(-14,0)" />
  <path
     d="m 139.3838,13.5778 5,0 0,5 -5,0 0,-5 z"
     style="fill:none;stroke-width:0.69999999;stroke-linecap:round;stroke-linejoin:round"
     id="path131"
     clip-path="url(#clipPath1)"
     inkscape:connector-curvature="0"
     transform="translate(-14,0)" />
  <path
     d="m 148.2554,13.5778 5,0 0,5 -5,0 0,-5 z"
     style="fill:#ffffff;stroke:none"
     id="path133"
     clip-path="url(#clipPath1)"
     inkscape:connector-curvature="0"
     transform="translate(-14,0)" />
  <path
     d="m 148.2554,13.5778 5,0 0,5 -5,0 0,-5 z"
     style="fill:none;stroke-width:0.69999999;stroke-linecap:round;stroke-linejoin:round"
     id="path135"
     clip-path="url(#clipPath1)"
     inkscape:connector-curvature="0"
     transform="translate(-14,0)" />
  <path
     d="m 157.127,13.5778 5,0 0,5 -5,0 0,-5 z"
     style="fill:#ffffff;stroke:none"
     id="path137"
     clip-path="url(#clipPath1)"
     inkscape:connector-curvature="0"
     transform="translate(-14,0)" />
  <path
     d="m 157.127,13.5778 5,0 0,5 -5,0 0,-5 z"
     style="fill:none;stroke-width:0.69999999;stroke-linecap:round;stroke-linejoin:round"
     id="path139"
     clip-path="url(#clipPath1)"
     inkscape:connector-curvature="0"
     transform="translate(-14,0)" />
  <path
     d="m 165.9985,13.5778 5,0 0,5 -5,0 0,-5 z"
     style="fill:#ffffff;stroke:none"
     id="path141"
     clip-path="url(#clipPath1)"
     inkscape:connector-curvature="0"
     transform="translate(-14,0)" />
  <path
     d="m 165.9985,13.5778 5,0 0,5 -5,0 0,-5 z"
     style="fill:none;stroke-width:0.69999999;stroke-linecap:round;stroke-linejoin:round"
     id="path143"
     clip-path="url(#clipPath1)"
     inkscape:connector-curvature="0"
     transform="translate(-14,0)" />
  <path
     d="m 174.8701,13.5778 5,0 0,5 -5,0 0,-5 z"
     style="fill:#ffffff;stroke:none"
     id="path145"
     clip-path="url(#clipPath1)"
     inkscape:connector-curvature="0"
     transform="translate(-14,0)" />
  <path
     d="m 174.8701,13.5778 5,0 0,5 -5,0 0,-5 z"
     style="fill:none;stroke-width:0.69999999;stroke-linecap:round;stroke-linejoin:round"
     id="path147"
     clip-path="url(#clipPath1)"
     inkscape:connector-curvature="0"
     transform="translate(-14,0)" />
  <path
     d="m 183.7417,13.5778 5,0 0,5 -5,0 0,-5 z"
     style="fill:#ffffff;stroke:none"
     id="path149"
     clip-path="url(#clipPath1)"
     inkscape:connector-curvature="0"
     transform="translate(-14,0)" />
  <path
     d="m 183.7417,13.5778 5,0 0,5 -5,0 0,-5 z"
     style="fill:none;stroke-width:0.69999999;stroke-linecap:round;stroke-linejoin:round"
     id="path151"
     clip-path="url(#clipPath1)"
     inkscape:connector-curvature="0"
     transform="translate(-14,0)" />
  <path
     d="m 192.6133,13.5778 5,0 0,5 -5,0 0,-5 z"
     style="fill:#ffffff;stroke:none"
     id="path153"
     clip-path="url(#clipPath1)"
     inkscape:connector-curvature="0"
     transform="translate(-14,0)" />
  <path
     d="m 192.6133,13.5778 5,0 0,5 -5,0 0,-5 z"
     style="fill:none;stroke-width:0.69999999;stroke-linecap:round;stroke-linejoin:round"
     id="path155"
     clip-path="url(#clipPath1)"
     inkscape:connector-curvature="0"
     transform="translate(-14,0)" />
  <path
     d="m 201.4849,13.5778 5,0 0,5 -5,0 0,-5 z"
     style="fill:#ffffff;stroke:none"
     id="path157"
     clip-path="url(#clipPath1)"
     inkscape:connector-curvature="0"
     transform="translate(-14,0)" />
  <path
     d="m 201.4849,13.5778 5,0 0,5 -5,0 0,-5 z"
     style="fill:none;stroke-width:0.69999999;stroke-linecap:round;stroke-linejoin:round"
     id="path159"
     clip-path="url(#clipPath1)"
     inkscape:connector-curvature="0"
     transform="translate(-14,0)" />
  <path
     d="m 210.3564,13.5778 5,0 0,5 -5,0 0,-5 z"
     style="fill:#ffffff;stroke:none"
     id="path161"
     clip-path="url(#clipPath1)"
     inkscape:connector-curvature="0"
     transform="translate(-14,0)" />
  <path
     d="m 210.3564,13.5778 5,0 0,5 -5,0 0,-5 z"
     style="fill:none;stroke-width:0.69999999;stroke-linecap:round;stroke-linejoin:round"
     id="path163"
     clip-path="url(#clipPath1)"
     inkscape:connector-curvature="0"
     transform="translate(-14,0)" />
  <path
     d="m 219.228,13.5778 5,0 0,5 -5,0 0,-5 z"
     style="fill:#ffffff;stroke:none"
     id="path165"
     clip-path="url(#clipPath1)"
     inkscape:connector-curvature="0"
     transform="translate(-14,0)" />
  <path
     d="m 219.228,13.5778 5,0 0,5 -5,0 0,-5 z"
     style="fill:none;stroke-width:0.69999999;stroke-linecap:round;stroke-linejoin:round"
     id="path167"
     clip-path="url(#clipPath1)"
     inkscape:connector-curvature="0"
     transform="translate(-14,0)" />
  <path
     d="m 228.0996,13.5778 5,0 0,5 -5,0 0,-5 z"
     style="fill:#ffffff;stroke:none"
     id="path169"
     clip-path="url(#clipPath1)"
     inkscape:connector-curvature="0"
     transform="translate(-14,0)" />
  <path
     d="m 228.0996,13.5778 5,0 0,5 -5,0 0,-5 z"
     style="fill:none;stroke-width:0.69999999;stroke-linecap:round;stroke-linejoin:round"
     id="path171"
     clip-path="url(#clipPath1)"
     inkscape:connector-curvature="0"
     transform="translate(-14,0)" />
  <path
     d="m 236.9712,13.5778 5,0 0,5 -5,0 0,-5 z"
     style="fill:#ffffff;stroke:none"
     id="path173"
     clip-path="url(#clipPath1)"
     inkscape:connector-curvature="0"
     transform="translate(-14,0)" />
  <path
     d="m 236.9712,13.5778 5,0 0,5 -5,0 0,-5 z"
     style="fill:none;stroke-width:0.69999999;stroke-linecap:round;stroke-linejoin:round"
     id="path175"
     clip-path="url(#clipPath1)"
     inkscape:connector-curvature="0"
     transform="translate(-14,0)" />
  <path
     d="m 245.8428,13.5778 5,0 0,5 -5,0 0,-5 z"
     style="fill:#ffffff;stroke:none"
     id="path177"
     clip-path="url(#clipPath1)"
     inkscape:connector-curvature="0"
     transform="translate(-14,0)" />
  <path
     d="m 245.8428,13.5778 5,0 0,5 -5,0 0,-5 z"
     style="fill:none;stroke-width:0.69999999;stroke-linecap:round;stroke-linejoin:round"
     id="path179"
     clip-path="url(#clipPath1)"
     inkscape:connector-curvature="0"
     transform="translate(-14,0)" />
  <path
     d="m 254.7144,13.5778 5,0 0,5 -5,0 0,-5 z"
     style="fill:#ffffff;stroke:none"
     id="path181"
     clip-path="url(#clipPath1)"
     inkscape:connector-curvature="0"
     transform="translate(-14,0)" />
  <path
     d="m 254.7144,13.5778 5,0 0,5 -5,0 0,-5 z"
     style="fill:none;stroke-width:0.69999999;stroke-linecap:round;stroke-linejoin:round"
     id="path183"
     clip-path="url(#clipPath1)"
     inkscape:connector-curvature="0"
     transform="translate(-14,0)" />
  <path
     d="m 263.5859,13.5778 5,0 0,5 -5,0 0,-5 z"
     style="fill:#ffffff;stroke:none"
     id="path185"
     clip-path="url(#clipPath1)"
     inkscape:connector-curvature="0"
     transform="translate(-14,0)" />
  <path
     d="m 263.5859,13.5778 5,0 0,5 -5,0 0,-5 z"
     style="fill:none;stroke-width:0.69999999;stroke-linecap:round;stroke-linejoin:round"
     id="path187"
     clip-path="url(#clipPath1)"
     inkscape:connector-curvature="0"
     transform="translate(-14,0)" />
  <path
     d="m 272.4575,13.5778 5,0 0,5 -5,0 0,-5 z"
     style="fill:#ffffff;stroke:none"
     id="path189"
     clip-path="url(#clipPath1)"
     inkscape:connector-curvature="0"
     transform="translate(-14,0)" />
  <path
     d="m 272.4575,13.5778 5,0 0,5 -5,0 0,-5 z"
     style="fill:none;stroke-width:0.69999999;stroke-linecap:round;stroke-linejoin:round"
     id="path191"
     clip-path="url(#clipPath1)"
     inkscape:connector-curvature="0"
     transform="translate(-14,0)" />
  <path
     d="m 281.3291,13.5778 5,0 0,5 -5,0 0,-5 z"
     style="fill:#ffffff;stroke:none"
     id="path193"
     clip-path="url(#clipPath1)"
     inkscape:connector-curvature="0"
     transform="translate(-14,0)" />
  <path
     d="m 281.3291,13.5778 5,0 0,5 -5,0 0,-5 z"
     style="fill:none;stroke-width:0.69999999;stroke-linecap:round;stroke-linejoin:round"
     id="path195"
     clip-path="url(#clipPath1)"
     inkscape:connector-curvature="0"
     transform="translate(-14,0)" />
  <path
     d="m 290.2007,13.5778 5,0 0,5 -5,0 0,-5 z"
     style="fill:#ffffff;stroke:none"
     id="path197"
     clip-path="url(#clipPath1)"
     inkscape:connector-curvature="0"
     transform="translate(-14,0)" />
  <path
     d="m 290.2007,13.5778 5,0 0,5 -5,0 0,-5 z"
     style="fill:none;stroke-width:0.69999999;stroke-linecap:round;stroke-linejoin:round"
     id="path199"
     clip-path="url(#clipPath1)"
     inkscape:connector-curvature="0"
     transform="translate(-14,0)" />
  <path
     d="m 299.0723,13.5778 5,0 0,5 -5,0 0,-5 z"
     style="fill:#ffffff;stroke:none"
     id="path201"
     clip-path="url(#clipPath1)"
     inkscape:connector-curvature="0"
     transform="translate(-14,0)" />
  <path
     d="m 299.0723,13.5778 5,0 0,5 -5,0 0,-5 z"
     style="fill:none;stroke-width:0.69999999;stroke-linecap:round;stroke-linejoin:round"
     id="path203"
     clip-path="url(#clipPath1)"
     inkscape:connector-curvature="0"
     transform="translate(-14,0)" />
  <path
     d="m 307.9438,13.5778 5,0 0,5 -5,0 0,-5 z"
     style="fill:#ffffff;stroke:none"
     id="path205"
     clip-path="url(#clipPath1)"
     inkscape:connector-curvature="0"
     transform="translate(-14,0)" />
  <path
     d="m 307.9438,13.5778 5,0 0,5 -5,0 0,-5 z"
     style="fill:none;stroke-width:0.69999999;stroke-linecap:round;stroke-linejoin:round"
     id="path207"
     clip-path="url(#clipPath1)"
     inkscape:connector-curvature="0"
     transform="translate(-14,0)" />
  <path
     d="m 316.8154,13.5778 5,0 0,5 -5,0 0,-5 z"
     style="fill:#ffffff;stroke:none"
     id="path209"
     clip-path="url(#clipPath1)"
     inkscape:connector-curvature="0"
     transform="translate(-14,0)" />
  <path
     d="m 316.8154,13.5778 5,0 0,5 -5,0 0,-5 z"
     style="fill:none;stroke-width:0.69999999;stroke-linecap:round;stroke-linejoin:round"
     id="path211"
     clip-path="url(#clipPath1)"
     inkscape:connector-curvature="0"
     transform="translate(-14,0)" />
  <path
     d="m 50.668,166.1618 5,0 0,5 -5,0 0,-5 z"
     style="stroke:none"
     id="path213"
     clip-path="url(#clipPath1)"
     inkscape:connector-curvature="0"
     transform="translate(-14,0)" />
  <path
     d="m 59.5396,155.1073 5,0 0,5 -5,0 0,-5 z"
     style="stroke:none"
     id="path215"
     clip-path="url(#clipPath1)"
     inkscape:connector-curvature="0"
     transform="translate(-14,0)" />
  <path
     d="m 68.4111,124.7277 5,0 0,5 -5,0 0,-5 z"
     style="stroke:none"
     id="path217"
     clip-path="url(#clipPath1)"
     inkscape:connector-curvature="0"
     transform="translate(-14,0)" />
  <path
     d="m 77.2827,91.766 5,0 0,5 -5,0 0,-5 z"
     style="stroke:none"
     id="path219"
     clip-path="url(#clipPath1)"
     inkscape:connector-curvature="0"
     transform="translate(-14,0)" />
  <path
     d="m 86.1543,69.9395 5,0 0,5 -5,0 0,-5 z"
     style="stroke:none"
     id="path221"
     clip-path="url(#clipPath1)"
     inkscape:connector-curvature="0"
     transform="translate(-14,0)" />
  <path
     d="m 95.0259,56.424 5,0 0,5 -5,0 0,-5 z"
     style="stroke:none"
     id="path223"
     clip-path="url(#clipPath1)"
     inkscape:connector-curvature="0"
     transform="translate(-14,0)" />
  <path
     d="m 103.8975,45.0467 5,0 0,5 -5,0 0,-5 z"
     style="stroke:none"
     id="path225"
     clip-path="url(#clipPath1)"
     inkscape:connector-curvature="0"
     transform="translate(-14,0)" />
  <path
     d="m 112.769,36.8567 5,0 0,5 -5,0 0,-5 z"
     style="stroke:none"
     id="path227"
     clip-path="url(#clipPath1)"
     inkscape:connector-curvature="0"
     transform="translate(-14,0)" />
  <path
     d="m 121.6406,29.635 5,0 0,5 -5,0 0,-5 z"
     style="stroke:none"
     id="path229"
     clip-path="url(#clipPath1)"
     inkscape:connector-curvature="0"
     transform="translate(-14,0)" />
  <path
     d="m 130.5122,25.1567 5,0 0,5 -5,0 0,-5 z"
     style="stroke:none"
     id="path231"
     clip-path="url(#clipPath1)"
     inkscape:connector-curvature="0"
     transform="translate(-14,0)" />
  <path
     d="m 139.3838,21.0416 5,0 0,5 -5,0 0,-5 z"
     style="stroke:none"
     id="path233"
     clip-path="url(#clipPath1)"
     inkscape:connector-curvature="0"
     transform="translate(-14,0)" />
  <path
     d="m 148.2554,18.0964 5,0 0,5 -5,0 0,-5 z"
     style="stroke:none"
     id="path235"
     clip-path="url(#clipPath1)"
     inkscape:connector-curvature="0"
     transform="translate(-14,0)" />
  <path
     d="m 157.127,16.2002 5,0 0,5 -5,0 0,-5 z"
     style="stroke:none"
     id="path237"
     clip-path="url(#clipPath1)"
     inkscape:connector-curvature="0"
     transform="translate(-14,0)" />
  <path
     d="m 165.9985,14.7478 5,0 0,5 -5,0 0,-5 z"
     style="stroke:none"
     id="path239"
     clip-path="url(#clipPath1)"
     inkscape:connector-curvature="0"
     transform="translate(-14,0)" />
  <path
     d="m 174.8701,13.2954 5,0 0,5 -5,0 0,-5 z"
     style="stroke:none"
     id="path241"
     clip-path="url(#clipPath1)"
     inkscape:connector-curvature="0"
     transform="translate(-14,0)" />
  <path
     d="m 183.7417,12.8112 5,0 0,5 -5,0 0,-5 z"
     style="stroke:none"
     id="path243"
     clip-path="url(#clipPath1)"
     inkscape:connector-curvature="0"
     transform="translate(-14,0)" />
  <path
     d="m 192.6133,12.3674 5,0 0,5 -5,0 0,-5 z"
     style="stroke:none"
     id="path245"
     clip-path="url(#clipPath1)"
     inkscape:connector-curvature="0"
     transform="translate(-14,0)" />
  <path
     d="m 201.4849,12.0447 5,0 0,5 -5,0 0,-5 z"
     style="stroke:none"
     id="path247"
     clip-path="url(#clipPath1)"
     inkscape:connector-curvature="0"
     transform="translate(-14,0)" />
  <path
     d="m 210.3564,11.964 5,0 0,5 -5,0 0,-5 z"
     style="stroke:none"
     id="path249"
     clip-path="url(#clipPath1)"
     inkscape:connector-curvature="0"
     transform="translate(-14,0)" />
  <path
     d="m 219.228,11.7623 5,0 0,5 -5,0 0,-5 z"
     style="stroke:none"
     id="path251"
     clip-path="url(#clipPath1)"
     inkscape:connector-curvature="0"
     transform="translate(-14,0)" />
  <path
     d="m 228.0996,11.7219 5,0 0,5 -5,0 0,-5 z"
     style="stroke:none"
     id="path253"
     clip-path="url(#clipPath1)"
     inkscape:connector-curvature="0"
     transform="translate(-14,0)" />
  <path
     d="m 236.9712,11.6816 5,0 0,5 -5,0 0,-5 z"
     style="stroke:none"
     id="path255"
     clip-path="url(#clipPath1)"
     inkscape:connector-curvature="0"
     transform="translate(-14,0)" />
  <path
     d="m 245.8428,11.6816 5,0 0,5 -5,0 0,-5 z"
     style="stroke:none"
     id="path257"
     clip-path="url(#clipPath1)"
     inkscape:connector-curvature="0"
     transform="translate(-14,0)" />
  <path
     d="m 254.7144,11.6816 5,0 0,5 -5,0 0,-5 z"
     style="stroke:none"
     id="path259"
     clip-path="url(#clipPath1)"
     inkscape:connector-curvature="0"
     transform="translate(-14,0)" />
  <path
     d="m 263.5859,11.6412 5,0 0,5 -5,0 0,-5 z"
     style="stroke:none"
     id="path261"
     clip-path="url(#clipPath1)"
     inkscape:connector-curvature="0"
     transform="translate(-14,0)" />
  <path
     d="m 272.4575,11.6412 5,0 0,5 -5,0 0,-5 z"
     style="stroke:none"
     id="path263"
     clip-path="url(#clipPath1)"
     inkscape:connector-curvature="0"
     transform="translate(-14,0)" />
  <path
     d="m 281.3291,11.6412 5,0 0,5 -5,0 0,-5 z"
     style="stroke:none"
     id="path265"
     clip-path="url(#clipPath1)"
     inkscape:connector-curvature="0"
     transform="translate(-14,0)" />
  <path
     d="m 290.2007,11.6412 5,0 0,5 -5,0 0,-5 z"
     style="stroke:none"
     id="path267"
     clip-path="url(#clipPath1)"
     inkscape:connector-curvature="0"
     transform="translate(-14,0)" />
  <path
     d="m 299.0723,11.6412 5,0 0,5 -5,0 0,-5 z"
     style="stroke:none"
     id="path269"
     clip-path="url(#clipPath1)"
     inkscape:connector-curvature="0"
     transform="translate(-14,0)" />
  <path
     d="m 307.9438,11.6412 5,0 0,5 -5,0 0,-5 z"
     style="stroke:none"
     id="path271"
     clip-path="url(#clipPath1)"
     inkscape:connector-curvature="0"
     transform="translate(-14,0)" />
  <path
     d="m 316.8154,11.6412 5,0 0,5 -5,0 0,-5 z"
     style="stroke:none"
     id="path273"
     clip-path="url(#clipPath1)"
     inkscape:connector-curvature="0"
     transform="translate(-14,0)" />
  <path
     d="m 55.668,168.7021 c 0,1.3808 -1.1193,2.5 -2.5,2.5 -1.3807,0 -2.5,-1.1192 -2.5,-2.5 0,-1.3807 1.1193,-2.5 2.5,-2.5 1.3807,0 2.5,1.1193 2.5,2.5 z"
     style="fill:#ffffff;stroke:none"
     id="path275"
     clip-path="url(#clipPath1)"
     inkscape:connector-curvature="0"
     transform="translate(-14,0)" />
  <path
     d="m 55.668,168.7021 c 0,1.3808 -1.1193,2.5 -2.5,2.5 -1.3807,0 -2.5,-1.1192 -2.5,-2.5 0,-1.3807 1.1193,-2.5 2.5,-2.5 1.3807,0 2.5,1.1193 2.5,2.5 z"
     style="fill:none;stroke-width:0.69999999;stroke-linecap:round;stroke-linejoin:round"
     id="path277"
     clip-path="url(#clipPath1)"
     inkscape:connector-curvature="0"
     transform="translate(-14,0)" />
  <path
     d="m 64.5396,168.6618 c 0,1.3807 -1.1193,2.5 -2.5,2.5 -1.3808,0 -2.5,-1.1193 -2.5,-2.5 0,-1.3807 1.1192,-2.5 2.5,-2.5 1.3807,0 2.5,1.1193 2.5,2.5 z"
     style="fill:#ffffff;stroke:none"
     id="path279"
     clip-path="url(#clipPath1)"
     inkscape:connector-curvature="0"
     transform="translate(-14,0)" />
  <path
     d="m 64.5396,168.6618 c 0,1.3807 -1.1193,2.5 -2.5,2.5 -1.3808,0 -2.5,-1.1193 -2.5,-2.5 0,-1.3807 1.1192,-2.5 2.5,-2.5 1.3807,0 2.5,1.1193 2.5,2.5 z"
     style="fill:none;stroke-width:0.69999999;stroke-linecap:round;stroke-linejoin:round"
     id="path281"
     clip-path="url(#clipPath1)"
     inkscape:connector-curvature="0"
     transform="translate(-14,0)" />
  <path
     d="m 73.4111,160.9559 c 0,1.3808 -1.1193,2.5 -2.5,2.5 -1.3807,0 -2.5,-1.1192 -2.5,-2.5 0,-1.3807 1.1193,-2.5 2.5,-2.5 1.3807,0 2.5,1.1193 2.5,2.5 z"
     style="fill:#ffffff;stroke:none"
     id="path283"
     clip-path="url(#clipPath1)"
     inkscape:connector-curvature="0"
     transform="translate(-14,0)" />
  <path
     d="m 73.4111,160.9559 c 0,1.3808 -1.1193,2.5 -2.5,2.5 -1.3807,0 -2.5,-1.1192 -2.5,-2.5 0,-1.3807 1.1193,-2.5 2.5,-2.5 1.3807,0 2.5,1.1193 2.5,2.5 z"
     style="fill:none;stroke-width:0.69999999;stroke-linecap:round;stroke-linejoin:round"
     id="path285"
     clip-path="url(#clipPath1)"
     inkscape:connector-curvature="0"
     transform="translate(-14,0)" />
  <path
     d="m 82.2827,135.4177 c 0,1.3807 -1.1193,2.5 -2.5,2.5 -1.3807,0 -2.5,-1.1193 -2.5,-2.5 0,-1.3807 1.1193,-2.5 2.5,-2.5 1.3807,0 2.5,1.1193 2.5,2.5 z"
     style="fill:#ffffff;stroke:none"
     id="path287"
     clip-path="url(#clipPath1)"
     inkscape:connector-curvature="0"
     transform="translate(-14,0)" />
  <path
     d="m 82.2827,135.4177 c 0,1.3807 -1.1193,2.5 -2.5,2.5 -1.3807,0 -2.5,-1.1193 -2.5,-2.5 0,-1.3807 1.1193,-2.5 2.5,-2.5 1.3807,0 2.5,1.1193 2.5,2.5 z"
     style="fill:none;stroke-width:0.69999999;stroke-linecap:round;stroke-linejoin:round"
     id="path289"
     clip-path="url(#clipPath1)"
     inkscape:connector-curvature="0"
     transform="translate(-14,0)" />
  <path
     d="m 91.1543,41.4143 c 0,1.3807 -1.1193,2.5 -2.5,2.5 -1.3807,0 -2.5,-1.1193 -2.5,-2.5 0,-1.3807 1.1193,-2.5 2.5,-2.5 1.3807,0 2.5,1.1193 2.5,2.5 z"
     style="fill:#ffffff;stroke:none"
     id="path291"
     clip-path="url(#clipPath1)"
     inkscape:connector-curvature="0"
     transform="translate(-14,0)" />
  <path
     d="m 91.1543,41.4143 c 0,1.3807 -1.1193,2.5 -2.5,2.5 -1.3807,0 -2.5,-1.1193 -2.5,-2.5 0,-1.3807 1.1193,-2.5 2.5,-2.5 1.3807,0 2.5,1.1193 2.5,2.5 z"
     style="fill:none;stroke-width:0.69999999;stroke-linecap:round;stroke-linejoin:round"
     id="path293"
     clip-path="url(#clipPath1)"
     inkscape:connector-curvature="0"
     transform="translate(-14,0)" />
  <path
     d="m 100.0259,16.0374 c 0,1.3807 -1.1193,2.5 -2.5,2.5 -1.3807,0 -2.5,-1.1193 -2.5,-2.5 0,-1.3807 1.1193,-2.5 2.5,-2.5 1.3807,0 2.5,1.1193 2.5,2.5 z"
     style="fill:#ffffff;stroke:none"
     id="path295"
     clip-path="url(#clipPath1)"
     inkscape:connector-curvature="0"
     transform="translate(-14,0)" />
  <path
     d="m 100.0259,16.0374 c 0,1.3807 -1.1193,2.5 -2.5,2.5 -1.3807,0 -2.5,-1.1193 -2.5,-2.5 0,-1.3807 1.1193,-2.5 2.5,-2.5 1.3807,0 2.5,1.1193 2.5,2.5 z"
     style="fill:none;stroke-width:0.69999999;stroke-linecap:round;stroke-linejoin:round"
     id="path297"
     clip-path="url(#clipPath1)"
     inkscape:connector-curvature="0"
     transform="translate(-14,0)" />
  <path
     d="m 108.8975,14.0202 c 0,1.3807 -1.1193,2.5 -2.5,2.5 -1.3808,0 -2.5,-1.1193 -2.5,-2.5 0,-1.3807 1.1192,-2.5 2.5,-2.5 1.3807,0 2.5,1.1193 2.5,2.5 z"
     style="fill:#ffffff;stroke:none"
     id="path299"
     clip-path="url(#clipPath1)"
     inkscape:connector-curvature="0"
     transform="translate(-14,0)" />
  <path
     d="m 108.8975,14.0202 c 0,1.3807 -1.1193,2.5 -2.5,2.5 -1.3808,0 -2.5,-1.1193 -2.5,-2.5 0,-1.3807 1.1192,-2.5 2.5,-2.5 1.3807,0 2.5,1.1193 2.5,2.5 z"
     style="fill:none;stroke-width:0.69999999;stroke-linecap:round;stroke-linejoin:round"
     id="path301"
     clip-path="url(#clipPath1)"
     inkscape:connector-curvature="0"
     transform="translate(-14,0)" />
  <path
     d="m 117.769,13.9799 c 0,1.3807 -1.1192,2.5 -2.5,2.5 -1.3807,0 -2.5,-1.1193 -2.5,-2.5 0,-1.3808 1.1193,-2.5 2.5,-2.5 1.3808,0 2.5,1.1192 2.5,2.5 z"
     style="fill:#ffffff;stroke:none"
     id="path303"
     clip-path="url(#clipPath1)"
     inkscape:connector-curvature="0"
     transform="translate(-14,0)" />
  <path
     d="m 117.769,13.9799 c 0,1.3807 -1.1192,2.5 -2.5,2.5 -1.3807,0 -2.5,-1.1193 -2.5,-2.5 0,-1.3808 1.1193,-2.5 2.5,-2.5 1.3808,0 2.5,1.1192 2.5,2.5 z"
     style="fill:none;stroke-width:0.69999999;stroke-linecap:round;stroke-linejoin:round"
     id="path305"
     clip-path="url(#clipPath1)"
     inkscape:connector-curvature="0"
     transform="translate(-14,0)" />
  <path
     d="m 126.6406,13.9799 c 0,1.3807 -1.1193,2.5 -2.5,2.5 -1.3807,0 -2.5,-1.1193 -2.5,-2.5 0,-1.3808 1.1193,-2.5 2.5,-2.5 1.3807,0 2.5,1.1192 2.5,2.5 z"
     style="fill:#ffffff;stroke:none"
     id="path307"
     clip-path="url(#clipPath1)"
     inkscape:connector-curvature="0"
     transform="translate(-14,0)" />
  <path
     d="m 126.6406,13.9799 c 0,1.3807 -1.1193,2.5 -2.5,2.5 -1.3807,0 -2.5,-1.1193 -2.5,-2.5 0,-1.3808 1.1193,-2.5 2.5,-2.5 1.3807,0 2.5,1.1192 2.5,2.5 z"
     style="fill:none;stroke-width:0.69999999;stroke-linecap:round;stroke-linejoin:round"
     id="path309"
     clip-path="url(#clipPath1)"
     inkscape:connector-curvature="0"
     transform="translate(-14,0)" />
  <path
     d="m 135.5122,13.9799 c 0,1.3807 -1.1193,2.5 -2.5,2.5 -1.3807,0 -2.5,-1.1193 -2.5,-2.5 0,-1.3808 1.1193,-2.5 2.5,-2.5 1.3807,0 2.5,1.1192 2.5,2.5 z"
     style="fill:#ffffff;stroke:none"
     id="path311"
     clip-path="url(#clipPath1)"
     inkscape:connector-curvature="0"
     transform="translate(-14,0)" />
  <path
     d="m 135.5122,13.9799 c 0,1.3807 -1.1193,2.5 -2.5,2.5 -1.3807,0 -2.5,-1.1193 -2.5,-2.5 0,-1.3808 1.1193,-2.5 2.5,-2.5 1.3807,0 2.5,1.1192 2.5,2.5 z"
     style="fill:none;stroke-width:0.69999999;stroke-linecap:round;stroke-linejoin:round"
     id="path313"
     clip-path="url(#clipPath1)"
     inkscape:connector-curvature="0"
     transform="translate(-14,0)" />
  <path
     d="m 144.3838,13.9799 c 0,1.3807 -1.1193,2.5 -2.5,2.5 -1.3807,0 -2.5,-1.1193 -2.5,-2.5 0,-1.3808 1.1193,-2.5 2.5,-2.5 1.3807,0 2.5,1.1192 2.5,2.5 z"
     style="fill:#ffffff;stroke:none"
     id="path315"
     clip-path="url(#clipPath1)"
     inkscape:connector-curvature="0"
     transform="translate(-14,0)" />
  <path
     d="m 144.3838,13.9799 c 0,1.3807 -1.1193,2.5 -2.5,2.5 -1.3807,0 -2.5,-1.1193 -2.5,-2.5 0,-1.3808 1.1193,-2.5 2.5,-2.5 1.3807,0 2.5,1.1192 2.5,2.5 z"
     style="fill:none;stroke-width:0.69999999;stroke-linecap:round;stroke-linejoin:round"
     id="path317"
     clip-path="url(#clipPath1)"
     inkscape:connector-curvature="0"
     transform="translate(-14,0)" />
  <path
     d="m 153.2554,13.9799 c 0,1.3807 -1.1193,2.5 -2.5,2.5 -1.3807,0 -2.5,-1.1193 -2.5,-2.5 0,-1.3808 1.1193,-2.5 2.5,-2.5 1.3807,0 2.5,1.1192 2.5,2.5 z"
     style="fill:#ffffff;stroke:none"
     id="path319"
     clip-path="url(#clipPath1)"
     inkscape:connector-curvature="0"
     transform="translate(-14,0)" />
  <path
     d="m 153.2554,13.9799 c 0,1.3807 -1.1193,2.5 -2.5,2.5 -1.3807,0 -2.5,-1.1193 -2.5,-2.5 0,-1.3808 1.1193,-2.5 2.5,-2.5 1.3807,0 2.5,1.1192 2.5,2.5 z"
     style="fill:none;stroke-width:0.69999999;stroke-linecap:round;stroke-linejoin:round"
     id="path321"
     clip-path="url(#clipPath1)"
     inkscape:connector-curvature="0"
     transform="translate(-14,0)" />
  <path
     d="m 162.127,13.9799 c 0,1.3807 -1.1193,2.5 -2.5,2.5 -1.3808,0 -2.5,-1.1193 -2.5,-2.5 0,-1.3808 1.1192,-2.5 2.5,-2.5 1.3807,0 2.5,1.1192 2.5,2.5 z"
     style="fill:#ffffff;stroke:none"
     id="path323"
     clip-path="url(#clipPath1)"
     inkscape:connector-curvature="0"
     transform="translate(-14,0)" />
  <path
     d="m 162.127,13.9799 c 0,1.3807 -1.1193,2.5 -2.5,2.5 -1.3808,0 -2.5,-1.1193 -2.5,-2.5 0,-1.3808 1.1192,-2.5 2.5,-2.5 1.3807,0 2.5,1.1192 2.5,2.5 z"
     style="fill:none;stroke-width:0.69999999;stroke-linecap:round;stroke-linejoin:round"
     id="path325"
     clip-path="url(#clipPath1)"
     inkscape:connector-curvature="0"
     transform="translate(-14,0)" />
  <path
     d="m 170.9985,13.9799 c 0,1.3807 -1.1193,2.5 -2.5,2.5 -1.3807,0 -2.5,-1.1193 -2.5,-2.5 0,-1.3808 1.1193,-2.5 2.5,-2.5 1.3807,0 2.5,1.1192 2.5,2.5 z"
     style="fill:#ffffff;stroke:none"
     id="path327"
     clip-path="url(#clipPath1)"
     inkscape:connector-curvature="0"
     transform="translate(-14,0)" />
  <path
     d="m 170.9985,13.9799 c 0,1.3807 -1.1193,2.5 -2.5,2.5 -1.3807,0 -2.5,-1.1193 -2.5,-2.5 0,-1.3808 1.1193,-2.5 2.5,-2.5 1.3807,0 2.5,1.1192 2.5,2.5 z"
     style="fill:none;stroke-width:0.69999999;stroke-linecap:round;stroke-linejoin:round"
     id="path329"
     clip-path="url(#clipPath1)"
     inkscape:connector-curvature="0"
     transform="translate(-14,0)" />
  <path
     d="m 179.8701,13.9799 c 0,1.3807 -1.1193,2.5 -2.5,2.5 -1.3807,0 -2.5,-1.1193 -2.5,-2.5 0,-1.3808 1.1193,-2.5 2.5,-2.5 1.3807,0 2.5,1.1192 2.5,2.5 z"
     style="fill:#ffffff;stroke:none"
     id="path331"
     clip-path="url(#clipPath1)"
     inkscape:connector-curvature="0"
     transform="translate(-14,0)" />
  <path
     d="m 179.8701,13.9799 c 0,1.3807 -1.1193,2.5 -2.5,2.5 -1.3807,0 -2.5,-1.1193 -2.5,-2.5 0,-1.3808 1.1193,-2.5 2.5,-2.5 1.3807,0 2.5,1.1192 2.5,2.5 z"
     style="fill:none;stroke-width:0.69999999;stroke-linecap:round;stroke-linejoin:round"
     id="path333"
     clip-path="url(#clipPath1)"
     inkscape:connector-curvature="0"
     transform="translate(-14,0)" />
  <path
     d="m 188.7417,13.9799 c 0,1.3807 -1.1193,2.5 -2.5,2.5 -1.3807,0 -2.5,-1.1193 -2.5,-2.5 0,-1.3808 1.1193,-2.5 2.5,-2.5 1.3807,0 2.5,1.1192 2.5,2.5 z"
     style="fill:#ffffff;stroke:none"
     id="path335"
     clip-path="url(#clipPath1)"
     inkscape:connector-curvature="0"
     transform="translate(-14,0)" />
  <path
     d="m 188.7417,13.9799 c 0,1.3807 -1.1193,2.5 -2.5,2.5 -1.3807,0 -2.5,-1.1193 -2.5,-2.5 0,-1.3808 1.1193,-2.5 2.5,-2.5 1.3807,0 2.5,1.1192 2.5,2.5 z"
     style="fill:none;stroke-width:0.69999999;stroke-linecap:round;stroke-linejoin:round"
     id="path337"
     clip-path="url(#clipPath1)"
     inkscape:connector-curvature="0"
     transform="translate(-14,0)" />
  <path
     d="m 197.6133,13.9799 c 0,1.3807 -1.1193,2.5 -2.5,2.5 -1.3807,0 -2.5,-1.1193 -2.5,-2.5 0,-1.3808 1.1193,-2.5 2.5,-2.5 1.3807,0 2.5,1.1192 2.5,2.5 z"
     style="fill:#ffffff;stroke:none"
     id="path339"
     clip-path="url(#clipPath1)"
     inkscape:connector-curvature="0"
     transform="translate(-14,0)" />
  <path
     d="m 197.6133,13.9799 c 0,1.3807 -1.1193,2.5 -2.5,2.5 -1.3807,0 -2.5,-1.1193 -2.5,-2.5 0,-1.3808 1.1193,-2.5 2.5,-2.5 1.3807,0 2.5,1.1192 2.5,2.5 z"
     style="fill:none;stroke-width:0.69999999;stroke-linecap:round;stroke-linejoin:round"
     id="path341"
     clip-path="url(#clipPath1)"
     inkscape:connector-curvature="0"
     transform="translate(-14,0)" />
  <path
     d="m 206.4849,13.9799 c 0,1.3807 -1.1193,2.5 -2.5,2.5 -1.3807,0 -2.5,-1.1193 -2.5,-2.5 0,-1.3808 1.1193,-2.5 2.5,-2.5 1.3807,0 2.5,1.1192 2.5,2.5 z"
     style="fill:#ffffff;stroke:none"
     id="path343"
     clip-path="url(#clipPath1)"
     inkscape:connector-curvature="0"
     transform="translate(-14,0)" />
  <path
     d="m 206.4849,13.9799 c 0,1.3807 -1.1193,2.5 -2.5,2.5 -1.3807,0 -2.5,-1.1193 -2.5,-2.5 0,-1.3808 1.1193,-2.5 2.5,-2.5 1.3807,0 2.5,1.1192 2.5,2.5 z"
     style="fill:none;stroke-width:0.69999999;stroke-linecap:round;stroke-linejoin:round"
     id="path345"
     clip-path="url(#clipPath1)"
     inkscape:connector-curvature="0"
     transform="translate(-14,0)" />
  <path
     d="m 215.3564,13.9799 c 0,1.3807 -1.1192,2.5 -2.5,2.5 -1.3807,0 -2.5,-1.1193 -2.5,-2.5 0,-1.3808 1.1193,-2.5 2.5,-2.5 1.3808,0 2.5,1.1192 2.5,2.5 z"
     style="fill:#ffffff;stroke:none"
     id="path347"
     clip-path="url(#clipPath1)"
     inkscape:connector-curvature="0"
     transform="translate(-14,0)" />
  <path
     d="m 215.3564,13.9799 c 0,1.3807 -1.1192,2.5 -2.5,2.5 -1.3807,0 -2.5,-1.1193 -2.5,-2.5 0,-1.3808 1.1193,-2.5 2.5,-2.5 1.3808,0 2.5,1.1192 2.5,2.5 z"
     style="fill:none;stroke-width:0.69999999;stroke-linecap:round;stroke-linejoin:round"
     id="path349"
     clip-path="url(#clipPath1)"
     inkscape:connector-curvature="0"
     transform="translate(-14,0)" />
  <path
     d="m 224.228,13.9799 c 0,1.3807 -1.1193,2.5 -2.5,2.5 -1.3807,0 -2.5,-1.1193 -2.5,-2.5 0,-1.3808 1.1193,-2.5 2.5,-2.5 1.3807,0 2.5,1.1192 2.5,2.5 z"
     style="fill:#ffffff;stroke:none"
     id="path351"
     clip-path="url(#clipPath1)"
     inkscape:connector-curvature="0"
     transform="translate(-14,0)" />
  <path
     d="m 224.228,13.9799 c 0,1.3807 -1.1193,2.5 -2.5,2.5 -1.3807,0 -2.5,-1.1193 -2.5,-2.5 0,-1.3808 1.1193,-2.5 2.5,-2.5 1.3807,0 2.5,1.1192 2.5,2.5 z"
     style="fill:none;stroke-width:0.69999999;stroke-linecap:round;stroke-linejoin:round"
     id="path353"
     clip-path="url(#clipPath1)"
     inkscape:connector-curvature="0"
     transform="translate(-14,0)" />
  <path
     d="m 233.0996,13.9799 c 0,1.3807 -1.1193,2.5 -2.5,2.5 -1.3807,0 -2.5,-1.1193 -2.5,-2.5 0,-1.3808 1.1193,-2.5 2.5,-2.5 1.3807,0 2.5,1.1192 2.5,2.5 z"
     style="fill:#ffffff;stroke:none"
     id="path355"
     clip-path="url(#clipPath1)"
     inkscape:connector-curvature="0"
     transform="translate(-14,0)" />
  <path
     d="m 233.0996,13.9799 c 0,1.3807 -1.1193,2.5 -2.5,2.5 -1.3807,0 -2.5,-1.1193 -2.5,-2.5 0,-1.3808 1.1193,-2.5 2.5,-2.5 1.3807,0 2.5,1.1192 2.5,2.5 z"
     style="fill:none;stroke-width:0.69999999;stroke-linecap:round;stroke-linejoin:round"
     id="path357"
     clip-path="url(#clipPath1)"
     inkscape:connector-curvature="0"
     transform="translate(-14,0)" />
  <path
     d="m 241.9712,13.9799 c 0,1.3807 -1.1193,2.5 -2.5,2.5 -1.3807,0 -2.5,-1.1193 -2.5,-2.5 0,-1.3808 1.1193,-2.5 2.5,-2.5 1.3807,0 2.5,1.1192 2.5,2.5 z"
     style="fill:#ffffff;stroke:none"
     id="path359"
     clip-path="url(#clipPath1)"
     inkscape:connector-curvature="0"
     transform="translate(-14,0)" />
  <path
     d="m 241.9712,13.9799 c 0,1.3807 -1.1193,2.5 -2.5,2.5 -1.3807,0 -2.5,-1.1193 -2.5,-2.5 0,-1.3808 1.1193,-2.5 2.5,-2.5 1.3807,0 2.5,1.1192 2.5,2.5 z"
     style="fill:none;stroke-width:0.69999999;stroke-linecap:round;stroke-linejoin:round"
     id="path361"
     clip-path="url(#clipPath1)"
     inkscape:connector-curvature="0"
     transform="translate(-14,0)" />
  <path
     d="m 250.8428,13.9799 c 0,1.3807 -1.1193,2.5 -2.5,2.5 -1.3807,0 -2.5,-1.1193 -2.5,-2.5 0,-1.3808 1.1193,-2.5 2.5,-2.5 1.3807,0 2.5,1.1192 2.5,2.5 z"
     style="fill:#ffffff;stroke:none"
     id="path363"
     clip-path="url(#clipPath1)"
     inkscape:connector-curvature="0"
     transform="translate(-14,0)" />
  <path
     d="m 250.8428,13.9799 c 0,1.3807 -1.1193,2.5 -2.5,2.5 -1.3807,0 -2.5,-1.1193 -2.5,-2.5 0,-1.3808 1.1193,-2.5 2.5,-2.5 1.3807,0 2.5,1.1192 2.5,2.5 z"
     style="fill:none;stroke-width:0.69999999;stroke-linecap:round;stroke-linejoin:round"
     id="path365"
     clip-path="url(#clipPath1)"
     inkscape:connector-curvature="0"
     transform="translate(-14,0)" />
  <path
     d="m 259.7144,13.9799 c 0,1.3807 -1.1193,2.5 -2.5,2.5 -1.3808,0 -2.5,-1.1193 -2.5,-2.5 0,-1.3808 1.1192,-2.5 2.5,-2.5 1.3807,0 2.5,1.1192 2.5,2.5 z"
     style="fill:#ffffff;stroke:none"
     id="path367"
     clip-path="url(#clipPath1)"
     inkscape:connector-curvature="0"
     transform="translate(-14,0)" />
  <path
     d="m 259.7144,13.9799 c 0,1.3807 -1.1193,2.5 -2.5,2.5 -1.3808,0 -2.5,-1.1193 -2.5,-2.5 0,-1.3808 1.1192,-2.5 2.5,-2.5 1.3807,0 2.5,1.1192 2.5,2.5 z"
     style="fill:none;stroke-width:0.69999999;stroke-linecap:round;stroke-linejoin:round"
     id="path369"
     clip-path="url(#clipPath1)"
     inkscape:connector-curvature="0"
     transform="translate(-14,0)" />
  <path
     d="m 268.5859,13.9799 c 0,1.3807 -1.1193,2.5 -2.5,2.5 -1.3807,0 -2.5,-1.1193 -2.5,-2.5 0,-1.3808 1.1193,-2.5 2.5,-2.5 1.3807,0 2.5,1.1192 2.5,2.5 z"
     style="fill:#ffffff;stroke:none"
     id="path371"
     clip-path="url(#clipPath1)"
     inkscape:connector-curvature="0"
     transform="translate(-14,0)" />
  <path
     d="m 268.5859,13.9799 c 0,1.3807 -1.1193,2.5 -2.5,2.5 -1.3807,0 -2.5,-1.1193 -2.5,-2.5 0,-1.3808 1.1193,-2.5 2.5,-2.5 1.3807,0 2.5,1.1192 2.5,2.5 z"
     style="fill:none;stroke-width:0.69999999;stroke-linecap:round;stroke-linejoin:round"
     id="path373"
     clip-path="url(#clipPath1)"
     inkscape:connector-curvature="0"
     transform="translate(-14,0)" />
  <path
     d="m 277.4575,13.9799 c 0,1.3807 -1.1193,2.5 -2.5,2.5 -1.3807,0 -2.5,-1.1193 -2.5,-2.5 0,-1.3808 1.1193,-2.5 2.5,-2.5 1.3807,0 2.5,1.1192 2.5,2.5 z"
     style="fill:#ffffff;stroke:none"
     id="path375"
     clip-path="url(#clipPath1)"
     inkscape:connector-curvature="0"
     transform="translate(-14,0)" />
  <path
     d="m 277.4575,13.9799 c 0,1.3807 -1.1193,2.5 -2.5,2.5 -1.3807,0 -2.5,-1.1193 -2.5,-2.5 0,-1.3808 1.1193,-2.5 2.5,-2.5 1.3807,0 2.5,1.1192 2.5,2.5 z"
     style="fill:none;stroke-width:0.69999999;stroke-linecap:round;stroke-linejoin:round"
     id="path377"
     clip-path="url(#clipPath1)"
     inkscape:connector-curvature="0"
     transform="translate(-14,0)" />
  <path
     d="m 286.3291,13.9799 c 0,1.3807 -1.1193,2.5 -2.5,2.5 -1.3807,0 -2.5,-1.1193 -2.5,-2.5 0,-1.3808 1.1193,-2.5 2.5,-2.5 1.3807,0 2.5,1.1192 2.5,2.5 z"
     style="fill:#ffffff;stroke:none"
     id="path379"
     clip-path="url(#clipPath1)"
     inkscape:connector-curvature="0"
     transform="translate(-14,0)" />
  <path
     d="m 286.3291,13.9799 c 0,1.3807 -1.1193,2.5 -2.5,2.5 -1.3807,0 -2.5,-1.1193 -2.5,-2.5 0,-1.3808 1.1193,-2.5 2.5,-2.5 1.3807,0 2.5,1.1192 2.5,2.5 z"
     style="fill:none;stroke-width:0.69999999;stroke-linecap:round;stroke-linejoin:round"
     id="path381"
     clip-path="url(#clipPath1)"
     inkscape:connector-curvature="0"
     transform="translate(-14,0)" />
  <path
     d="m 295.2007,13.9799 c 0,1.3807 -1.1193,2.5 -2.5,2.5 -1.3807,0 -2.5,-1.1193 -2.5,-2.5 0,-1.3808 1.1193,-2.5 2.5,-2.5 1.3807,0 2.5,1.1192 2.5,2.5 z"
     style="fill:#ffffff;stroke:none"
     id="path383"
     clip-path="url(#clipPath1)"
     inkscape:connector-curvature="0"
     transform="translate(-14,0)" />
  <path
     d="m 295.2007,13.9799 c 0,1.3807 -1.1193,2.5 -2.5,2.5 -1.3807,0 -2.5,-1.1193 -2.5,-2.5 0,-1.3808 1.1193,-2.5 2.5,-2.5 1.3807,0 2.5,1.1192 2.5,2.5 z"
     style="fill:none;stroke-width:0.69999999;stroke-linecap:round;stroke-linejoin:round"
     id="path385"
     clip-path="url(#clipPath1)"
     inkscape:connector-curvature="0"
     transform="translate(-14,0)" />
  <path
     d="m 304.0723,13.9799 c 0,1.3807 -1.1193,2.5 -2.5,2.5 -1.3807,0 -2.5,-1.1193 -2.5,-2.5 0,-1.3808 1.1193,-2.5 2.5,-2.5 1.3807,0 2.5,1.1192 2.5,2.5 z"
     style="fill:#ffffff;stroke:none"
     id="path387"
     clip-path="url(#clipPath1)"
     inkscape:connector-curvature="0"
     transform="translate(-14,0)" />
  <path
     d="m 304.0723,13.9799 c 0,1.3807 -1.1193,2.5 -2.5,2.5 -1.3807,0 -2.5,-1.1193 -2.5,-2.5 0,-1.3808 1.1193,-2.5 2.5,-2.5 1.3807,0 2.5,1.1192 2.5,2.5 z"
     style="fill:none;stroke-width:0.69999999;stroke-linecap:round;stroke-linejoin:round"
     id="path389"
     clip-path="url(#clipPath1)"
     inkscape:connector-curvature="0"
     transform="translate(-14,0)" />
  <path
     d="m 312.9438,13.9799 c 0,1.3807 -1.1192,2.5 -2.5,2.5 -1.3807,0 -2.5,-1.1193 -2.5,-2.5 0,-1.3808 1.1193,-2.5 2.5,-2.5 1.3808,0 2.5,1.1192 2.5,2.5 z"
     style="fill:#ffffff;stroke:none"
     id="path391"
     clip-path="url(#clipPath1)"
     inkscape:connector-curvature="0"
     transform="translate(-14,0)" />
  <path
     d="m 312.9438,13.9799 c 0,1.3807 -1.1192,2.5 -2.5,2.5 -1.3807,0 -2.5,-1.1193 -2.5,-2.5 0,-1.3808 1.1193,-2.5 2.5,-2.5 1.3808,0 2.5,1.1192 2.5,2.5 z"
     style="fill:none;stroke-width:0.69999999;stroke-linecap:round;stroke-linejoin:round"
     id="path393"
     clip-path="url(#clipPath1)"
     inkscape:connector-curvature="0"
     transform="translate(-14,0)" />
  <path
     d="m 321.8154,13.9799 c 0,1.3807 -1.1193,2.5 -2.5,2.5 -1.3807,0 -2.5,-1.1193 -2.5,-2.5 0,-1.3808 1.1193,-2.5 2.5,-2.5 1.3807,0 2.5,1.1192 2.5,2.5 z"
     style="fill:#ffffff;stroke:none"
     id="path395"
     clip-path="url(#clipPath1)"
     inkscape:connector-curvature="0"
     transform="translate(-14,0)" />
  <path
     d="m 321.8154,13.9799 c 0,1.3807 -1.1193,2.5 -2.5,2.5 -1.3807,0 -2.5,-1.1193 -2.5,-2.5 0,-1.3808 1.1193,-2.5 2.5,-2.5 1.3807,0 2.5,1.1192 2.5,2.5 z"
     style="fill:none;stroke-width:0.69999999;stroke-linecap:round;stroke-linejoin:round"
     id="path397"
     clip-path="url(#clipPath1)"
     inkscape:connector-curvature="0"
     transform="translate(-14,0)" />
  <path
     d="m 55.668,168.7021 c 0,1.3808 -1.1193,2.5 -2.5,2.5 -1.3807,0 -2.5,-1.1192 -2.5,-2.5 0,-1.3807 1.1193,-2.5 2.5,-2.5 1.3807,0 2.5,1.1193 2.5,2.5 z"
     style="stroke:none"
     id="path399"
     clip-path="url(#clipPath1)"
     inkscape:connector-curvature="0"
     transform="translate(-14,0)" />
  <path
     d="m 64.5396,167.7742 c 0,1.3807 -1.1193,2.5 -2.5,2.5 -1.3808,0 -2.5,-1.1193 -2.5,-2.5 0,-1.3807 1.1192,-2.5 2.5,-2.5 1.3807,0 2.5,1.1193 2.5,2.5 z"
     style="stroke:none"
     id="path401"
     clip-path="url(#clipPath1)"
     inkscape:connector-curvature="0"
     transform="translate(-14,0)" />
  <path
     d="m 73.4111,156.9215 c 0,1.3807 -1.1193,2.5 -2.5,2.5 -1.3807,0 -2.5,-1.1193 -2.5,-2.5 0,-1.3807 1.1193,-2.5 2.5,-2.5 1.3807,0 2.5,1.1193 2.5,2.5 z"
     style="stroke:none"
     id="path403"
     clip-path="url(#clipPath1)"
     inkscape:connector-curvature="0"
     transform="translate(-14,0)" />
  <path
     d="m 82.2827,126.9049 c 0,1.3807 -1.1193,2.5 -2.5,2.5 -1.3807,0 -2.5,-1.1193 -2.5,-2.5 0,-1.3807 1.1193,-2.5 2.5,-2.5 1.3807,0 2.5,1.1193 2.5,2.5 z"
     style="stroke:none"
     id="path405"
     clip-path="url(#clipPath1)"
     inkscape:connector-curvature="0"
     transform="translate(-14,0)" />
  <path
     d="m 91.1543,93.6608 c 0,1.3807 -1.1193,2.5 -2.5,2.5 -1.3807,0 -2.5,-1.1193 -2.5,-2.5 0,-1.3807 1.1193,-2.5 2.5,-2.5 1.3807,0 2.5,1.1193 2.5,2.5 z"
     style="stroke:none"
     id="path407"
     clip-path="url(#clipPath1)"
     inkscape:connector-curvature="0"
     transform="translate(-14,0)" />
  <path
     d="m 100.0259,70.0995 c 0,1.3807 -1.1193,2.5 -2.5,2.5 -1.3807,0 -2.5,-1.1193 -2.5,-2.5 0,-1.3807 1.1193,-2.5 2.5,-2.5 1.3807,0 2.5,1.1193 2.5,2.5 z"
     style="stroke:none"
     id="path409"
     clip-path="url(#clipPath1)"
     inkscape:connector-curvature="0"
     transform="translate(-14,0)" />
  <path
     d="m 108.8975,55.3333 c 0,1.3807 -1.1193,2.5 -2.5,2.5 -1.3808,0 -2.5,-1.1193 -2.5,-2.5 0,-1.3807 1.1192,-2.5 2.5,-2.5 1.3807,0 2.5,1.1193 2.5,2.5 z"
     style="stroke:none"
     id="path411"
     clip-path="url(#clipPath1)"
     inkscape:connector-curvature="0"
     transform="translate(-14,0)" />
  <path
     d="m 117.769,45.2067 c 0,1.3807 -1.1192,2.5 -2.5,2.5 -1.3807,0 -2.5,-1.1193 -2.5,-2.5 0,-1.3807 1.1193,-2.5 2.5,-2.5 1.3808,0 2.5,1.1193 2.5,2.5 z"
     style="stroke:none"
     id="path413"
     clip-path="url(#clipPath1)"
     inkscape:connector-curvature="0"
     transform="translate(-14,0)" />
  <path
     d="m 126.6406,37.5412 c 0,1.3807 -1.1193,2.5 -2.5,2.5 -1.3807,0 -2.5,-1.1193 -2.5,-2.5 0,-1.3807 1.1193,-2.5 2.5,-2.5 1.3807,0 2.5,1.1193 2.5,2.5 z"
     style="stroke:none"
     id="path415"
     clip-path="url(#clipPath1)"
     inkscape:connector-curvature="0"
     transform="translate(-14,0)" />
  <path
     d="m 135.5122,31.1264 c 0,1.3807 -1.1193,2.5 -2.5,2.5 -1.3807,0 -2.5,-1.1193 -2.5,-2.5 0,-1.3807 1.1193,-2.5 2.5,-2.5 1.3807,0 2.5,1.1193 2.5,2.5 z"
     style="stroke:none"
     id="path417"
     clip-path="url(#clipPath1)"
     inkscape:connector-curvature="0"
     transform="translate(-14,0)" />
  <path
     d="m 144.3838,26.4867 c 0,1.3807 -1.1193,2.5 -2.5,2.5 -1.3807,0 -2.5,-1.1193 -2.5,-2.5 0,-1.3807 1.1193,-2.5 2.5,-2.5 1.3807,0 2.5,1.1193 2.5,2.5 z"
     style="stroke:none"
     id="path419"
     clip-path="url(#clipPath1)"
     inkscape:connector-curvature="0"
     transform="translate(-14,0)" />
  <path
     d="m 153.2554,23.5012 c 0,1.3807 -1.1193,2.5 -2.5,2.5 -1.3807,0 -2.5,-1.1193 -2.5,-2.5 0,-1.3807 1.1193,-2.5 2.5,-2.5 1.3807,0 2.5,1.1193 2.5,2.5 z"
     style="stroke:none"
     id="path421"
     clip-path="url(#clipPath1)"
     inkscape:connector-curvature="0"
     transform="translate(-14,0)" />
  <path
     d="m 162.127,20.9998 c 0,1.3808 -1.1193,2.5 -2.5,2.5 -1.3808,0 -2.5,-1.1192 -2.5,-2.5 0,-1.3807 1.1192,-2.5 2.5,-2.5 1.3807,0 2.5,1.1193 2.5,2.5 z"
     style="stroke:none"
     id="path423"
     clip-path="url(#clipPath1)"
     inkscape:connector-curvature="0"
     transform="translate(-14,0)" />
  <path
     d="m 170.9985,19.3861 c 0,1.3807 -1.1193,2.5 -2.5,2.5 -1.3807,0 -2.5,-1.1193 -2.5,-2.5 0,-1.3808 1.1193,-2.5 2.5,-2.5 1.3807,0 2.5,1.1192 2.5,2.5 z"
     style="stroke:none"
     id="path425"
     clip-path="url(#clipPath1)"
     inkscape:connector-curvature="0"
     transform="translate(-14,0)" />
  <path
     d="m 179.8701,17.6512 c 0,1.3807 -1.1193,2.5 -2.5,2.5 -1.3807,0 -2.5,-1.1193 -2.5,-2.5 0,-1.3807 1.1193,-2.5 2.5,-2.5 1.3807,0 2.5,1.1193 2.5,2.5 z"
     style="stroke:none"
     id="path427"
     clip-path="url(#clipPath1)"
     inkscape:connector-curvature="0"
     transform="translate(-14,0)" />
  <path
     d="m 188.7417,16.4409 c 0,1.3807 -1.1193,2.5 -2.5,2.5 -1.3807,0 -2.5,-1.1193 -2.5,-2.5 0,-1.3807 1.1193,-2.5 2.5,-2.5 1.3807,0 2.5,1.1193 2.5,2.5 z"
     style="stroke:none"
     id="path429"
     clip-path="url(#clipPath1)"
     inkscape:connector-curvature="0"
     transform="translate(-14,0)" />
  <path
     d="m 197.6133,15.0288 c 0,1.3807 -1.1193,2.5 -2.5,2.5 -1.3807,0 -2.5,-1.1193 -2.5,-2.5 0,-1.3807 1.1193,-2.5 2.5,-2.5 1.3807,0 2.5,1.1193 2.5,2.5 z"
     style="stroke:none"
     id="path431"
     clip-path="url(#clipPath1)"
     inkscape:connector-curvature="0"
     transform="translate(-14,0)" />
  <path
     d="m 206.4849,14.343 c 0,1.3807 -1.1193,2.5 -2.5,2.5 -1.3807,0 -2.5,-1.1193 -2.5,-2.5 0,-1.3808 1.1193,-2.5 2.5,-2.5 1.3807,0 2.5,1.1192 2.5,2.5 z"
     style="stroke:none"
     id="path433"
     clip-path="url(#clipPath1)"
     inkscape:connector-curvature="0"
     transform="translate(-14,0)" />
  <path
     d="m 215.3564,13.7378 c 0,1.3807 -1.1192,2.5 -2.5,2.5 -1.3807,0 -2.5,-1.1193 -2.5,-2.5 0,-1.3807 1.1193,-2.5 2.5,-2.5 1.3808,0 2.5,1.1193 2.5,2.5 z"
     style="stroke:none"
     id="path435"
     clip-path="url(#clipPath1)"
     inkscape:connector-curvature="0"
     transform="translate(-14,0)" />
  <path
     d="m 224.228,13.0116 c 0,1.3807 -1.1193,2.5 -2.5,2.5 -1.3807,0 -2.5,-1.1193 -2.5,-2.5 0,-1.3807 1.1193,-2.5 2.5,-2.5 1.3807,0 2.5,1.1193 2.5,2.5 z"
     style="stroke:none"
     id="path437"
     clip-path="url(#clipPath1)"
     inkscape:connector-curvature="0"
     transform="translate(-14,0)" />
  <path
     d="m 233.0996,12.4467 c 0,1.3808 -1.1193,2.5 -2.5,2.5 -1.3807,0 -2.5,-1.1192 -2.5,-2.5 0,-1.3807 1.1193,-2.5 2.5,-2.5 1.3807,0 2.5,1.1193 2.5,2.5 z"
     style="stroke:none"
     id="path439"
     clip-path="url(#clipPath1)"
     inkscape:connector-curvature="0"
     transform="translate(-14,0)" />
  <path
     d="m 241.9712,12.245 c 0,1.3807 -1.1193,2.5 -2.5,2.5 -1.3807,0 -2.5,-1.1193 -2.5,-2.5 0,-1.3807 1.1193,-2.5 2.5,-2.5 1.3807,0 2.5,1.1193 2.5,2.5 z"
     style="stroke:none"
     id="path441"
     clip-path="url(#clipPath1)"
     inkscape:connector-curvature="0"
     transform="translate(-14,0)" />
  <path
     d="m 250.8428,12.1643 c 0,1.3807 -1.1193,2.5 -2.5,2.5 -1.3807,0 -2.5,-1.1193 -2.5,-2.5 0,-1.3807 1.1193,-2.5 2.5,-2.5 1.3807,0 2.5,1.1193 2.5,2.5 z"
     style="stroke:none"
     id="path443"
     clip-path="url(#clipPath1)"
     inkscape:connector-curvature="0"
     transform="translate(-14,0)" />
  <path
     d="m 259.7144,11.8819 c 0,1.3807 -1.1193,2.5 -2.5,2.5 -1.3808,0 -2.5,-1.1193 -2.5,-2.5 0,-1.3807 1.1192,-2.5 2.5,-2.5 1.3807,0 2.5,1.1193 2.5,2.5 z"
     style="stroke:none"
     id="path445"
     clip-path="url(#clipPath1)"
     inkscape:connector-curvature="0"
     transform="translate(-14,0)" />
  <path
     d="m 268.5859,11.7205 c 0,1.3808 -1.1193,2.5 -2.5,2.5 -1.3807,0 -2.5,-1.1192 -2.5,-2.5 0,-1.3807 1.1193,-2.5 2.5,-2.5 1.3807,0 2.5,1.1193 2.5,2.5 z"
     style="stroke:none"
     id="path447"
     clip-path="url(#clipPath1)"
     inkscape:connector-curvature="0"
     transform="translate(-14,0)" />
  <path
     d="m 277.4575,11.7205 c 0,1.3808 -1.1193,2.5 -2.5,2.5 -1.3807,0 -2.5,-1.1192 -2.5,-2.5 0,-1.3807 1.1193,-2.5 2.5,-2.5 1.3807,0 2.5,1.1193 2.5,2.5 z"
     style="stroke:none"
     id="path449"
     clip-path="url(#clipPath1)"
     inkscape:connector-curvature="0"
     transform="translate(-14,0)" />
  <path
     d="m 286.3291,11.5592 c 0,1.3807 -1.1193,2.5 -2.5,2.5 -1.3807,0 -2.5,-1.1193 -2.5,-2.5 0,-1.3807 1.1193,-2.5 2.5,-2.5 1.3807,0 2.5,1.1193 2.5,2.5 z"
     style="stroke:none"
     id="path451"
     clip-path="url(#clipPath1)"
     inkscape:connector-curvature="0"
     transform="translate(-14,0)" />
  <path
     d="m 295.2007,11.5592 c 0,1.3807 -1.1193,2.5 -2.5,2.5 -1.3807,0 -2.5,-1.1193 -2.5,-2.5 0,-1.3807 1.1193,-2.5 2.5,-2.5 1.3807,0 2.5,1.1193 2.5,2.5 z"
     style="stroke:none"
     id="path453"
     clip-path="url(#clipPath1)"
     inkscape:connector-curvature="0"
     transform="translate(-14,0)" />
  <path
     d="m 304.0723,11.5592 c 0,1.3807 -1.1193,2.5 -2.5,2.5 -1.3807,0 -2.5,-1.1193 -2.5,-2.5 0,-1.3807 1.1193,-2.5 2.5,-2.5 1.3807,0 2.5,1.1193 2.5,2.5 z"
     style="stroke:none"
     id="path455"
     clip-path="url(#clipPath1)"
     inkscape:connector-curvature="0"
     transform="translate(-14,0)" />
  <path
     d="m 312.9438,11.5592 c 0,1.3807 -1.1192,2.5 -2.5,2.5 -1.3807,0 -2.5,-1.1193 -2.5,-2.5 0,-1.3807 1.1193,-2.5 2.5,-2.5 1.3808,0 2.5,1.1193 2.5,2.5 z"
     style="stroke:none"
     id="path457"
     clip-path="url(#clipPath1)"
     inkscape:connector-curvature="0"
     transform="translate(-14,0)" />
  <path
     d="m 321.8154,11.5592 c 0,1.3807 -1.1193,2.5 -2.5,2.5 -1.3807,0 -2.5,-1.1193 -2.5,-2.5 0,-1.3807 1.1193,-2.5 2.5,-2.5 1.3807,0 2.5,1.1193 2.5,2.5 z"
     style="stroke:none"
     id="path459"
     clip-path="url(#clipPath1)"
     inkscape:connector-curvature="0"
     transform="translate(-14,0)" />
  <g
     style="font-size:12px;font-style:normal;font-weight:normal;fill:#000000;fill-opacity:1;stroke:#000000;stroke-width:1;stroke-linecap:square;stroke-linejoin:miter;stroke-miterlimit:10;stroke-opacity:1;stroke-dasharray:none;stroke-dashoffset:0;font-family:Dialog"
     id="g5284"
     transform="translate(-24.155025,4.9466499)">
    <rect
       y="98.524162"
       x="148.73694"
       height="57.228588"
       width="176.79362"
       id="rect5253"
       style="font-size:12px;font-style:normal;font-weight:normal;fill:#ffffff;fill-opacity:1;stroke:#000000;stroke-width:0.89938182;stroke-linecap:butt;stroke-linejoin:round;stroke-miterlimit:4;stroke-opacity:1;stroke-dasharray:none;stroke-dashoffset:0;font-family:Dialog" />
    <g
       id="g5258">
      <g
         id="g5248">
        <text
           transform="scale(0.99913611,1.0008646)"
           sodipodi:linespacing="125%"
           id="text3137"
           y="110.05646"
           x="189.08868"
           style="font-size:10.79258156px;font-style:normal;font-variant:normal;font-weight:bold;font-stretch:normal;line-height:125%;letter-spacing:0px;word-spacing:0px;fill:#000000;fill-opacity:1;stroke:none;font-family:Arial;-inkscape-font-specification:Sans Bold"
           xml:space="preserve"><tspan
             y="110.05646"
             x="189.08868"
             id="tspan3139"
             sodipodi:role="line">Scenario 3 a (Escape)</tspan></text>
        <text
           transform="scale(0.99913614,1.0008646)"
           sodipodi:linespacing="125%"
           id="text3137-3"
           y="123.47704"
           x="189.08868"
           style="font-size:10.79258156px;font-style:normal;font-variant:normal;font-weight:bold;font-stretch:normal;line-height:125%;letter-spacing:0px;word-spacing:0px;fill:#000000;fill-opacity:1;stroke:none;font-family:Arial;-inkscape-font-specification:Sans Bold"
           xml:space="preserve"><tspan
             y="123.47704"
             x="189.08868"
             id="tspan3139-0"
             sodipodi:role="line">Scenario 3 b (Escape)</tspan></text>
        <text
           transform="scale(0.99913614,1.0008646)"
           sodipodi:linespacing="125%"
           id="text3137-0"
           y="136.89761"
           x="189.08868"
           style="font-size:10.79258156px;font-style:normal;font-variant:normal;font-weight:bold;font-stretch:normal;line-height:125%;letter-spacing:0px;word-spacing:0px;fill:#000000;fill-opacity:1;stroke:none;font-family:Arial;-inkscape-font-specification:Sans Bold"
           xml:space="preserve"><tspan
             y="136.89761"
             x="189.08868"
             id="tspan3139-46"
             sodipodi:role="line">Scenario 3 a (Information)</tspan></text>
        <text
           transform="scale(0.99913614,1.0008646)"
           sodipodi:linespacing="125%"
           id="text3137-4"
           y="150.31819"
           x="189.08868"
           style="font-size:10.79258156px;font-style:normal;font-variant:normal;font-weight:bold;font-stretch:normal;line-height:125%;letter-spacing:0px;word-spacing:0px;fill:#000000;fill-opacity:1;stroke:none;font-family:Arial;-inkscape-font-specification:Sans Bold"
           xml:space="preserve"><tspan
             y="150.31819"
             x="189.08868"
             id="tspan3139-6"
             sodipodi:role="line">Scenario 3 b (Information)</tspan></text>
      </g>
      <g
         id="g5232">
        <g
           transform="translate(7.3242188e-7,27.2476)"
           id="g4096">
          <line
             x1="14.6465"
             x2="54.6465"
             y1="6.8017998"
             style="font-size:12px;font-style:normal;font-weight:bold;fill:none;stroke:#000000;stroke-width:0.69999999;stroke-linecap:round;stroke-linejoin:round;stroke-miterlimit:1;stroke-opacity:1;stroke-dasharray:2, 4;stroke-dashoffset:0;font-family:Arial"
             y2="6.8017998"
             id="line13"
             clip-path="url(#clipPath1-9)"
             transform="translate(134.69806,98.744733)" />
          <path
             d="m 32.1465,4.3018 5,0 0,5 -5,0 0,-5 z"
             style="font-size:12px;font-style:normal;font-weight:bold;fill:none;stroke:#000000;stroke-width:0.69999999;stroke-linecap:round;stroke-linejoin:round;stroke-miterlimit:10;stroke-opacity:1;stroke-dasharray:none;stroke-dashoffset:0;font-family:Arial"
             id="path19"
             clip-path="url(#clipPath1-9)"
             inkscape:connector-curvature="0"
             transform="translate(134.69806,98.744733)" />
        </g>
        <g
           transform="matrix(-1,0,0,-1,338.68912,224.54187)"
           id="g4100">
          <line
             x1="14.6465"
             x2="54.6465"
             y1="20.600599"
             style="font-size:12px;font-style:normal;font-weight:bold;fill:none;stroke:#000000;stroke-width:0.69999999;stroke-linecap:round;stroke-linejoin:round;stroke-miterlimit:10;stroke-opacity:1;stroke-dasharray:none;stroke-dashoffset:0;font-family:Arial"
             y2="20.600599"
             id="line23-2"
             clip-path="url(#clipPath1-9)"
             transform="translate(134.69806,98.744733)" />
          <path
             d="m 32.1465,18.1006 5,0 0,5 -5,0 0,-5 z"
             style="font-size:12px;font-style:normal;font-weight:bold;fill:#000000;fill-opacity:1;stroke:none;font-family:Arial"
             id="path25-3"
             clip-path="url(#clipPath1-9)"
             inkscape:connector-curvature="0"
             transform="translate(134.69806,98.744733)" />
        </g>
        <g
           transform="translate(7.3242188e-7,13.448804)"
           id="g4104">
          <line
             x1="14.6465"
             x2="54.6465"
             y1="34.399399"
             style="font-size:12px;font-style:normal;font-weight:bold;fill:none;stroke:#000000;stroke-width:0.69999999;stroke-linecap:round;stroke-linejoin:round;stroke-miterlimit:1;stroke-opacity:1;stroke-dasharray:2, 4;stroke-dashoffset:0;font-family:Arial"
             y2="34.399399"
             id="line31-6"
             clip-path="url(#clipPath1-9)"
             transform="translate(134.69806,98.744733)" />
          <path
             d="m 37.1465,34.3994 c 0,1.3807 -1.1193,2.5 -2.5,2.5 -1.3807,0 -2.5,-1.1193 -2.5,-2.5 0,-1.3807 1.1193,-2.5 2.5,-2.5 1.3807,0 2.5,1.1193 2.5,2.5 z"
             style="font-size:12px;font-style:normal;font-weight:bold;fill:none;stroke:#000000;stroke-width:0.69999999;stroke-linecap:round;stroke-linejoin:round;stroke-miterlimit:10;stroke-opacity:1;stroke-dasharray:none;stroke-dashoffset:0;font-family:Arial"
             id="path37-5"
             clip-path="url(#clipPath1-9)"
             inkscape:connector-curvature="0"
             transform="translate(134.69806,98.744733)" />
        </g>
        <g
           transform="matrix(-1,0,0,-1,338.68912,251.78947)"
           id="g5226">
          <path
             d="m 37.1465,34.3994 c 0,1.3807 -1.1193,2.5 -2.5,2.5 -1.3807,0 -2.5,-1.1193 -2.5,-2.5 0,-1.3807 1.1193,-2.5 2.5,-2.5 1.3807,0 2.5,1.1193 2.5,2.5 z"
             style="font-size:12px;font-style:normal;font-weight:bold;fill:#ffffff;fill-opacity:1;stroke:none;font-family:Arial"
             id="path35"
             clip-path="url(#clipPath1-9)"
             inkscape:connector-curvature="0"
             transform="translate(134.69806,98.744733)" />
          <g
             id="g4108"
             transform="translate(7.3242188e-7,-14.148796)">
            <line
               transform="translate(134.69806,98.744733)"
               clip-path="url(#clipPath1-9)"
               id="line41"
               y2="48.1982"
               style="font-size:12px;font-style:normal;font-weight:bold;fill:none;stroke:#000000;stroke-width:0.69999999;stroke-linecap:round;stroke-linejoin:round;stroke-miterlimit:10;stroke-opacity:1;stroke-dasharray:none;stroke-dashoffset:0;font-family:Arial"
               y1="48.1982"
               x2="54.6465"
               x1="14.6465" />
            <path
               transform="translate(134.69806,98.744733)"
               inkscape:connector-curvature="0"
               clip-path="url(#clipPath1-9)"
               id="path43"
               style="font-size:12px;font-style:normal;font-weight:bold;fill:#000000;fill-opacity:1;stroke:none;font-family:Arial"
               d="m 37.1465,48.1982 c 0,1.3808 -1.1193,2.5 -2.5,2.5 -1.3807,0 -2.5,-1.1192 -2.5,-2.5 0,-1.3807 1.1193,-2.5 2.5,-2.5 1.3807,0 2.5,1.1193 2.5,2.5 z" />
          </g>
        </g>
      </g>
    </g>
  </g>
  <text
     xml:space="preserve"
     style="font-size:13px;font-style:normal;font-variant:normal;font-weight:bold;font-stretch:normal;line-height:125%;letter-spacing:0px;word-spacing:0px;fill:#000000;fill-opacity:1;stroke:none;font-family:Arial;-inkscape-font-specification:Sans Bold"
     x="-156.35904"
     y="18.260462"
     id="text5781"
     sodipodi:linespacing="125%"
     transform="matrix(0,-1,1,0,0,0)"><tspan
       sodipodi:role="line"
       id="tspan5783"
       x="-156.35904"
       y="18.260462">Evacuation Rate[%]</tspan></text>
  <text
     xml:space="preserve"
     style="font-size:13px;font-style:normal;font-variant:normal;font-weight:bold;font-stretch:normal;line-height:125%;letter-spacing:0px;word-spacing:0px;fill:#000000;fill-opacity:1;stroke:none;font-family:Arial;-inkscape-font-specification:Sans Bold"
     x="-153.09955"
     y="321.43338"
     id="text5781-0"
     sodipodi:linespacing="125%"
     transform="matrix(0,-1,1,0,0,0)"><tspan
       sodipodi:role="line"
       id="tspan5783-9"
       x="-153.09955"
       y="321.43338">Diffusion Rate[%]</tspan></text>
</svg>
